<?xml version="1.0" encoding="UTF-8"?>
<svg id="Layer_2" data-name="Layer 2" xmlns="http://www.w3.org/2000/svg" viewBox="0 0 2068.2 478.93">
  <defs>
    <style>
      .cls-1, .cls-2 {
        stroke-width: 0px;
      }

      .cls-2 {
        fill: #fff;
      }
    </style>
  </defs>
  <g id="creative_separate" data-name="creative separate">
    <g>
      <path id="c" class="cls-1" d="M218.24,392.17c-42.52-3.21-74-8.72-105.27-18.44-18.56-5.77-36.77-14.89-54.12-27.11-25.69-18.09-43.95-42.54-52.83-70.71-8.86-28.13-7.93-58.63,2.69-88.2,13.72-38.21,38.09-69.37,72.41-92.61,20.48-13.87,43.57-25.46,70.57-35.45C224.48,32.75,286.6,15.48,347.2,5.32c18.65-3.13,37.18-4.3,53.09-5.16,1.95-.1,3.92-.16,5.86-.16,20.88,0,40.76,5.89,59.07,17.52,17.89,11.36,28.87,29.61,30.12,50.08,1.26,20.7-7.56,40.42-24.2,54.09-11.01,9.04-23.49,13.82-36.1,13.82-6.62,0-13.09-1.31-19.23-3.9-1.28-.54-3.29-.78-6.51-.78-2.02,0-4.3.1-6.72.2-2.27.09-4.62.19-7.15.23-20.59.33-39.7,2.47-58.43,6.51-52.44,11.33-103.71,29.62-156.73,55.92-11.54,5.72-23.08,13.17-33.9,20.3-5.77,3.8-10.57,8.56-14.31,14.19,6.76,3.29,14.96,5.45,25.71,6.84,13.92,1.8,27.98,2.72,41.81,2.72,30.78,0,61.87-4.54,92.41-13.49,6.05-1.77,13.12-3.81,20.44-5.54,4.65-1.1,9.33-1.66,13.9-1.66,18.23,0,34.42,8.84,44.43,24.26,18.95,29.18,25.34,61.34,18.49,93-5.44,25.15-25.09,42.94-52.55,47.59l-5.49.93c-16.77,2.86-34.11,5.82-51.98,7.25-17.14,1.37-34.19,1.68-46.64,1.91-4.3.08-8.02.15-10.97.24l-1.69.06-1.69-.13Z"/>
      <path id="C" class="cls-2" d="M220.6,360.89c-40.02-3.02-69.53-8.17-98.32-17.12-16.35-5.08-31.4-12.96-45.37-22.8-40.81-28.74-55.55-75.68-38.68-122.66,11.64-32.42,32.06-58,60.48-77.24,19.87-13.45,41.41-23.7,63.87-32,61.81-22.85,124.71-41.9,189.81-52.82,16.34-2.74,33.01-3.88,49.59-4.77,16.65-.9,32.37,3.6,46.43,12.52,19.81,12.57,20.97,38.55,2.82,53.44-6.91,5.67-15.17,8.66-23.25,5.26-11.02-4.64-21.91-2.98-33.05-2.8-21.77.35-43.24,2.61-64.54,7.22-57.24,12.37-111.71,32.52-164.05,58.48-12.91,6.4-25.17,14.26-37.22,22.21-11.93,7.86-21.39,18.36-27.95,31.19-8.15,15.95-6.23,22.98,8.68,32.61,13.37,8.64,28.33,12.51,43.9,14.52,49.85,6.46,98.86,2.35,147.07-11.78,6.24-1.83,12.51-3.62,18.83-5.12,10.22-2.42,19.18.48,24.81,9.16,13.71,21.11,19.54,44.37,14.14,69.28-3,13.88-13.68,21.02-27.13,23.3-18.17,3.08-36.39,6.37-54.73,7.84-21.94,1.75-44.03,1.68-56.13,2.07Z"/>
    </g>
    <g>
      <path id="t" class="cls-1" d="M1241.05,459.59c-10,0-20.23-1.44-30.41-4.27-26.08-7.26-45.34-26.26-52.83-52.14-4.61-15.91-7.31-32.26-9.48-46.34-2.4-15.54-4.42-30.73-6.51-46.69-17.26-2.86-32.46-9.19-46.28-14.93-1.64-.68-3.29-1.37-4.93-2.04-21.78-8.96-34.32-29.43-33.54-54.76.96-30.98,16.67-55.37,44.26-68.68,12.96-6.25,24.81-12.11,35.91-17.77.61-4.71,1.34-9.94,2.77-15.53,2.43-9.52,5.77-20.63,12.12-30.87,6.41-10.34,15.61-19.37,25.91-25.42,9.72-5.71,20.54-8.73,31.31-8.73,24.75,0,46.56,15.69,55.57,39.96.75,2.04,1.45,4.06,2.11,6.07,3.96-.42,8.17-.73,12.57-.73.36,0,.71,0,1.07,0,30.02.35,57.19,14.94,72.68,39.04,15.57,24.23,17.55,55.21,5.29,82.87-11.76,26.54-33.22,44.93-62.32,53.51,4.76,14.83,11.54,29.33,20.18,43.13,5.79,9.25,10.21,17.87,13.53,26.37,10.25,26.28,3.57,52.73-17.88,70.76-21.45,18.03-45.36,27.17-71.08,27.17Z"/>
      <path id="t-2" data-name="t" class="cls-2" d="M1169.6,281.15c-3.73-.31-6.92-.76-10.11-.8-20.45-.23-38.65-8.64-56.97-16.17-10.58-4.35-14.46-13.93-14.12-24.79.58-18.92,9.13-33,26.54-41.4,15.9-7.67,31.72-15.52,47.38-23.66,2.06-1.07,3.78-4.18,4.27-6.62,1.56-7.78,1.83-15.85,3.79-23.51,1.95-7.62,4.3-15.51,8.39-22.11,3.65-5.89,9.18-11.4,15.15-14.91,16.48-9.69,34.91-2.83,41.57,15.1,3.5,9.42,5.68,19.33,8.77,30.14,4.09-.69,8.2-1.57,12.35-2.06,7.88-.92,15.79-2.38,23.67-2.28,41.58.48,66.55,39.7,49.66,77.85-9.19,20.75-25.89,32.38-47.52,37.44-6.98,1.63-14.08,2.75-21.65,4.2.07,10.74,1.57,20.6,4.47,30.27,5.73,19.16,14.04,37.11,24.66,54.08,4.2,6.7,8.03,13.78,10.89,21.13,5.3,13.59,2.23,26.05-8.84,35.35-21.29,17.89-45.79,24.24-72.91,16.69-15.7-4.37-26.62-15.13-31.11-30.65-4-13.81-6.41-28.15-8.61-42.39-3.58-23.18-6.41-46.48-9.71-70.91Z"/>
    </g>
    <g>
      <path id="e_2" data-name="e 2" class="cls-1" d="M1884.94,412.75c-13.45,0-26.82-1.28-39.75-3.8-21.75-4.24-41.42-12.24-58.47-23.76-33.77-22.83-46.72-56.83-53.52-80.41-10.88-37.74-7.89-77.48,8.92-118.12,13.88-33.57,39.37-57.63,73.72-69.57,24.75-8.6,47.42-12.79,69.3-12.79,10.02,0,20.03.9,29.74,2.68,26.58,4.86,48.11,16.74,63.99,35.31,24.53,28.67,29.59,63.39,14.26,97.77-.93,2.09-2.07,4.52-3.45,7.14,5.45-1.47,10.88-2.21,16.24-2.21,12.96,0,25.47,4.37,36.19,12.65,20.65,15.94,29.68,40.45,24.77,67.23-3.47,18.92-14.74,34.39-33.5,45.99-22.02,13.62-45.83,21.25-66.83,28-29.15,9.35-55.84,13.9-81.62,13.9Z"/>
      <path id="e_2-2" data-name="e 2" class="cls-2" d="M1821.24,277.78c4.4,14.71,12.72,22.13,23.68,26.92,12.41,5.43,25.56,8.18,39.03,8.03,22.54-.24,44.84-3.09,65.79-11.8,12.3-5.11,23.86-11.97,35.75-18.05.96-.49,1.89-1.06,2.85-1.56,11.76-6.24,23.54-7.42,34.62,1.13,12.08,9.32,15.76,22.13,13.08,36.74-2.1,11.42-9.44,18.98-19.14,24.98-18.66,11.54-39.34,18.2-59.92,24.8-34.45,11.05-69.65,16.22-105.78,9.18-16.85-3.28-32.57-9.27-46.9-18.96-22.63-15.3-33.66-37.83-40.96-63.13-9.68-33.57-5.26-65.95,7.76-97.45,10.46-25.3,28.86-42.83,55.03-51.92,27.05-9.4,54.58-14.1,83.1-8.88,17.89,3.27,33.77,10.78,45.8,24.84,16.65,19.47,19.9,41.17,9.45,64.61-2.33,5.23-5.15,10.57-8.94,14.79-22.68,25.28-50.31,40.69-85.1,41.06-3.25.03-6.5-.09-9.76-.07-12.61.05-25.31,1.14-39.46-5.27ZM1834.29,223.4c23.77,2.62,55.49-8.14,66.71-22.15-25.37.17-48.4,3.78-66.71,22.15Z"/>
    </g>
    <g>
      <path id="a" class="cls-1" d="M1122.99,478.93c-21.67,0-42-8.03-60.44-23.87-1.54-1.32-3-2.66-4.39-4.01-18.55,5.96-36.63,8.04-54.92,9.67-1.09.1-2.19.19-3.28.28-4.45.37-8.65.72-11.71,1.44-8.91,2.07-17.88,3.13-26.67,3.13-37.51,0-70.69-18.9-91.03-51.86-8.13-13.17-13.73-27.72-17.13-44.48-12.31-60.74,8.8-112.77,61.03-150.48,23.26-16.79,50.07-25.31,79.67-25.31,12.88,0,26.43,1.65,40.29,4.89,19.9,4.66,37.04,16.81,50.95,36.09,11.96,16.58,22.86,33.35,32.41,49.83,15.4,26.58,29.55,47.51,44.53,65.88,5.01,6.14,10.74,13.63,15.29,22.66,5.26,10.41,8.71,19.97,10.56,29.21,3.83,19.2-.15,37.72-11.22,52.13-11.21,14.59-28.37,23.33-48.33,24.61-1.87.12-3.75.18-5.61.18Z"/>
      <path id="a-2" data-name="a" class="cls-2" d="M1066.4,413.88c-22.04,11.11-43.92,13.63-65.94,15.59-6.47.58-13.04.95-19.33,2.41-34.16,7.96-65.53-4.91-83.89-34.66-6.54-10.6-10.61-22.04-13.08-34.23-10.23-50.49,8.29-89.68,48.65-118.82,28.35-20.47,60.96-23.15,94.44-15.31,14,3.28,24.56,12.66,32.66,23.9,10.97,15.21,21.31,30.98,30.71,47.21,14.17,24.47,29.48,48.06,47.36,69.98,4.32,5.3,8.54,10.9,11.6,16.97,3.38,6.7,6.34,13.9,7.8,21.22,4.29,21.48-8.86,37.9-30.8,39.3-16.89,1.08-31.16-5.5-43.59-16.18-5.97-5.13-10.96-11.41-16.59-17.39ZM957.72,343.57c18.68,9.18,37.41,11.06,57.98,3.97-9.18-12.56-19.62-20.42-34.62-20.17-11.24.19-18.49,6.44-23.36,16.2Z"/>
    </g>
    <g>
      <path id="e_1" data-name="e 1" class="cls-1" d="M755.63,449.36c-23.77,0-47.71-2.57-71.16-7.65-23.13-5-44.77-15.6-64.31-31.48-32.2-26.17-46.86-62.72-42.4-105.69,1.14-11.02,3.55-22.54,7.57-36.28,15.79-53.97,55.25-89.35,114.1-102.3,10.23-2.25,21.07-3.39,32.23-3.39,3.23,0,6.51.1,9.74.29,23.17,1.39,43.76,10.29,59.55,25.75,15.51,15.18,24.99,35.35,27.42,58.31,2.64,24.93-1.56,47.48-12.09,66.65,26.96,1.82,47.42,20.07,53.94,48.56,4.34,18.96,1.16,37.88-8.95,53.28-9.7,14.78-24.85,24.74-42.65,28.06-20.95,3.9-42.14,5.88-62.99,5.88Z"/>
      <path id="e_1-2" data-name="e 1" class="cls-2" d="M723.08,345.84c6.34.91,10.44,1.75,14.58,2.06,22.44,1.7,44.79,1.2,67.06-2.5,18.49-3.07,30.74,5.46,34.92,23.73,4.77,20.86-6.57,39.75-26.77,43.51-40.66,7.58-81.34,7.16-121.78-1.58-19.03-4.12-36.09-12.91-51.16-25.16-24.82-20.17-34.23-46.87-30.98-78.11,1.08-10.36,3.54-20.69,6.47-30.71,13.37-45.7,45.75-70.58,90.74-80.48,10.8-2.38,22.31-3.08,33.36-2.42,31.77,1.9,54.3,24.36,57.66,56.05,3.78,35.7-10.25,62.84-41.85,80.05-9.74,5.3-19.98,9.68-32.24,15.56ZM746.95,262.03c-25.01-11.14-66.57,5.79-73.17,29.49,22.61-5.01,44.69-9.83,64.46-21.64,3.12-1.86,5.53-4.92,8.72-7.85Z"/>
    </g>
    <g>
      <path id="r" class="cls-1" d="M456.15,439.45c-5.84,0-11.92-.68-18.07-2.02-22.06-4.82-40.72-16.63-55.46-35.11-25.34-31.75-34.11-69.79-25.37-109.98,13.24-60.89,50.17-107,109.77-137.05,15.62-7.88,33.42-11.71,54.41-11.71.83,0,1.66,0,2.49.02.88-.02,1.77-.03,2.65-.03,19.83,0,39.34,4.76,57.98,14.16,7.57,3.81,13.98,7.74,19.61,12.01,22.63,17.15,34.98,41.2,33.88,65.98-1.09,24.67-15.42,47.41-39.3,62.38-7.68,4.81-15.35,7.95-22.12,10.72-2.84,1.16-5.52,2.26-7.88,3.35-4.66,2.16-9.34,4.26-13.87,6.29-11.38,5.1-22.13,9.92-32.18,15.42-6.5,3.55-10.72,8.61-12.91,15.47-1.01,3.16-.89,5.03-.39,6.87,1.88,6.99,3.41,14.44,4.82,23.46,3.78,24.18-8.01,45.04-30.78,54.45-8.55,3.53-17.72,5.33-27.26,5.33Z"/>
      <path id="r-2" data-name="r" class="cls-2" d="M524.06,174.97c15.89-.44,31.59,3.32,46.37,10.77,5.14,2.59,10.21,5.53,14.79,9,29.81,22.59,28.56,56.91-3.14,76.78-8.17,5.12-17.68,8.1-26.52,12.18-16.04,7.42-32.46,14.19-47.93,22.65-13.29,7.27-22.98,18.56-27.74,33.46-2.59,8.13-3.05,16.2-.8,24.55,1.78,6.62,3.06,13.39,4.12,20.17,1.56,10-2.32,16.71-11.77,20.61-8.65,3.58-17.66,3.61-26.66,1.65-15.46-3.38-27.85-11.76-37.64-24.03-19.8-24.82-25.89-53.17-19.24-83.76,11.72-53.91,44.75-91.26,93.24-115.71,13.14-6.62,27.53-8.59,42.92-8.33Z"/>
    </g>
    <g>
      <path id="v" class="cls-1" d="M1650.8,426.46c-10.35,0-21.01-1.3-31.68-3.88-43.54-10.5-78.02-36.71-99.71-75.81-11.88-21.4-23.26-43.3-34.26-64.48-4.21-8.11-8.43-16.21-12.67-24.3l-.74-1.4c-2.64-5.01-5.63-10.68-8.01-17.4-6.79-19.19-4.57-38.86,6.1-53.95,10.32-14.6,27.13-22.97,46.12-22.97,4.41,0,8.93.46,13.43,1.36,22.12,4.43,40.52,17.14,56.26,38.86,11.21,15.47,19.93,28.59,27.43,41.29,5.93,10.06,11.27,20.23,16.43,30.06,3.34,6.37,6.5,12.39,9.8,18.36.7,1.26,1.39,2.53,2.08,3.79,3.93,7.17,7.64,13.95,11.68,19.3,1.05,1.39,1.74,1.39,2.11,1.39.59,0,2.07-.22,3.09-2.29,2.25-4.54,4.08-10.51,5.29-17.26,3.42-19.08,1.92-40.32-4.84-68.89-.3-1.28-.61-2.55-.92-3.83-1.41-5.82-2.86-11.83-3.94-18.39-1.36-8.24-1.78-15.58-1.29-22.45,1.82-25.46,20.16-43.94,43.6-43.94,8.86,0,17.92,2.74,26.2,7.91,10.9,6.81,20.41,16.36,26.79,26.9,7.28,12.01,12.39,24.88,14.79,37.21,2.78,14.29,4.56,28.48,6.28,42.21.67,5.36,1.37,10.91,2.1,16.26l.46,3.32-.26,3.35c-1.5,19.45-3.73,40.33-9.82,61.21-15.92,54.56-58.8,88.46-111.9,88.46Z"/>
      <path id="v-2" data-name="v" class="cls-2" d="M1741.25,274.38c-1.45,18.73-3.46,37.02-8.66,54.84-14.49,49.68-55.83,75-106.12,62.88-34.77-8.38-62.09-28.9-79.64-60.54-16.12-29.05-31.15-58.71-46.59-88.14-2.52-4.79-5.15-9.6-6.95-14.68-7.75-21.9,7.09-38.92,29.92-34.34,16.25,3.26,27.74,13.7,37.04,26.51,9.12,12.57,17.92,25.45,25.81,38.82,9.17,15.54,17.05,31.84,25.78,47.65,5.05,9.15,9.93,18.54,16.2,26.83,16.04,21.23,46.93,17.1,58.33-5.87,3.94-7.95,6.49-16.89,8.07-25.67,4.94-27.55,1.18-54.72-5.2-81.65-1.58-6.68-3.32-13.34-4.44-20.1-.82-4.96-1.31-10.1-.95-15.09.95-13.34,10.49-18.79,21.9-11.67,6.51,4.07,12.64,10.02,16.59,16.55,4.97,8.2,9,17.57,10.82,26.94,3.64,18.73,5.5,37.81,8.09,56.74Z"/>
    </g>
    <g>
      <g id="i">
        <path class="cls-1" d="M1451.61,443.04c-25.11,0-45.19-16.64-52.39-43.43-2.47-9.19-4.32-18.97-6-31.71-2.79-21.17-10.42-39.25-23.34-55.27-9.06-11.24-17.77-24.21-27.39-40.82-6.78-11.69-14.11-27.51-10.61-46.12,4.75-25.27,27.14-39.32,34.49-43.94,11.97-7.51,25.59-11.48,39.4-11.48,21.16,0,40.95,8.99,55.73,25.3,8.46,9.35,13.93,19.59,18.75,28.63l.16.3c3.58,6.71,6.78,13.38,9.87,19.83,3.02,6.29,5.87,12.23,8.9,17.89,10.95,20.39,22.61,45.12,26.08,73.93,1.19,9.92,1.13,19.42,1.08,26.35-.02,2.14-.03,4.16,0,5.53l.12,5.16-1.54,4.92c-6.21,19.9-16.94,44.49-45.11,58.05-9.46,4.56-18.96,6.87-28.22,6.87Z"/>
        <path class="cls-1" d="M1430.36,176.65c-40.36,0-73.8-33.39-74.54-74.43-.35-19.56,6.9-37.98,20.42-51.85,13.35-13.7,31.25-21.32,50.41-21.46h.54c40.7,0,74.07,33.53,74.38,74.74.15,19.74-7.27,38.21-20.9,52-13.3,13.46-31.05,20.91-49.99,20.99h-.3Z"/>
      </g>
      <g id="i-2" data-name="i">
        <path class="cls-2" d="M1495,368.79c-6.09,19.54-14.1,32.07-28.77,39.13-17.68,8.52-31.65,2.38-36.72-16.45-2.43-9.03-3.97-18.37-5.19-27.66-3.48-26.43-13.15-49.94-30.02-70.86-9.25-11.47-17.27-24.09-24.67-36.86-10.51-18.13-12.42-31.55,13.41-47.76,18.1-11.36,40.43-8.01,55.2,8.31,5.94,6.56,10.28,14.75,14.5,22.65,6.62,12.41,12.16,25.39,18.82,37.78,10.67,19.87,19.86,40.29,22.58,62.85,1.32,10.98.71,22.19.87,28.88Z"/>
        <path class="cls-2" d="M1430.53,145.28c-23.42.1-42.92-19.53-43.36-43.63-.41-22.75,17.3-41.21,39.69-41.37,23.44-.17,43.14,19.66,43.32,43.62.17,22.96-17.39,41.29-39.66,41.38Z"/>
      </g>
    </g>
  </g>
  <g id="Layer_13_copy" data-name="Layer 13 copy">
    <g>
      <path class="cls-1" d="M646.08,76.52c0,18.25-17.43,26.26-38.51,26.26h-47.58l16.49-82.44h43.69c19.55,0,29.56,7.18,29.56,19.67,0,9.54-5.65,16.49-14.72,20.37,7.07,3.06,11.07,8.6,11.07,16.13ZM618.53,75.81c0-3.65-3.18-5.42-6.83-5.42h-17.9l-2.59,12.95h17.9c5.42,0,9.42-2.47,9.42-7.54ZM599.92,39.78l-2.47,12.25h14.13c6.36,0,9.19-2.71,9.19-7.18,0-3.42-2.71-5.06-7.3-5.06h-13.54Z"/>
      <path class="cls-1" d="M716.51,78.76l13.78,24.02h-28.85l-11.66-20.73h-6.83l-4.12,20.73h-27.79l16.49-82.44h36.98c21.79,0,34.27,10.01,34.27,27.09,0,14.72-8.24,26.03-22.26,31.33ZM700.26,41.78h-9.3l-3.89,19.31h11.42c7.65,0,12.13-4,12.13-10.95,0-5.89-4-8.36-10.36-8.36Z"/>
      <path class="cls-1" d="M889.39,20.35l-42.87,82.44h-29.8l-4.71-43.46-22.61,43.46h-29.79l-9.89-82.44h27.44l5.3,46.99,24.5-46.99h25.56l4.71,47.7,24.85-47.7h27.32Z"/>
      <path class="cls-1" d="M976.78,20.35l-16.49,82.44h-22.85l-23.67-38.39-7.65,38.39h-27.09l16.49-82.44h22.85l23.67,38.39,7.65-38.39h27.09Z"/>
    </g>
  </g>
</svg>