<svg xmlns="http://www.w3.org/2000/svg" xmlns:xlink="http://www.w3.org/1999/xlink" viewBox="0 0 1499.75 1222.37"><defs><style>.cls-1,.cls-10,.cls-12,.cls-14,.cls-15,.cls-2,.cls-4,.cls-8,.cls-9{fill:none;}.cls-10,.cls-11,.cls-12,.cls-13,.cls-14,.cls-15,.cls-2,.cls-3,.cls-4,.cls-5,.cls-8{stroke:#000;}.cls-12,.cls-13,.cls-14,.cls-15,.cls-2,.cls-3,.cls-4,.cls-8,.cls-9{stroke-linecap:round;}.cls-10,.cls-11,.cls-12,.cls-13,.cls-14,.cls-15,.cls-2,.cls-3,.cls-4,.cls-5,.cls-8,.cls-9{stroke-miterlimit:10;}.cls-2{stroke-width:60px;}.cls-13,.cls-3,.cls-5{fill:#8b5e3c;}.cls-3,.cls-4,.cls-5{stroke-width:45px;}.cls-6{clip-path:url(#clip-path);}.cls-7{fill:#fff035;}.cls-8{stroke-width:25px;}.cls-9{stroke:#fff;stroke-width:21px;}.cls-10{stroke-width:15.16px;}.cls-11{fill:#fff;}.cls-11,.cls-13{stroke-width:35px;}.cls-12{stroke-width:38.9px;}.cls-14{stroke-width:70px;}.cls-15{stroke-width:15px;}</style><clipPath id="clip-path"><path class="cls-1" d="M948.63,1084.31H717.49c-175.76,0-411.72-98.74-460-341.26,0,0-16.81-105.68-16.81-185.64s-2.06-102.58,14.71-236.3C272.26,186.33,293.65,16.2,867,64c293.15,24.42,308,114.17,327.43,419.65C1463.27,503.08,1551.15,1095.49,948.63,1084.31Z"/></clipPath></defs><g id="Layer_2" data-name="Layer 2"><g id="Layer_2-2" data-name="Layer 2"><path class="cls-2" d="M364,147.44C370.47,86.8,444,22.05,505.43,94"/><path class="cls-2" d="M567.61,107.39c6.47-60.64,96.47-125.45,150-25.68"/><path class="cls-2" d="M792.05,114.43c-21-64.61,109.41-120.15,136.38-19.8"/><path class="cls-2" d="M993.19,169.09c-31.66-90.47,95.6-133.95,115.24,0"/><circle class="cls-3" cx="219.99" cy="617.68" r="197.49"/><path class="cls-4" d="M152.1,550.07c40.12,29.88,63.17,72,56.57,135.22"/><path class="cls-4" d="M202.75,617.68c-24.42,3.52-45.95,12.47-60.94,39.52"/><path class="cls-5" d="M954,1089.71H722.89c-175.76,0-411.72-98.74-460-341.26,0,0-16.81-105.68-16.81-185.64S244,460.23,260.76,326.51C277.66,191.73,299.05,21.6,872.38,69.37,1165.53,93.79,1180.43,183.54,1199.81,489,1468.67,508.48,1556.55,1100.89,954,1089.71Z"/><g class="cls-6"><path class="cls-7" d="M1264.45,795.26l45.72,92.65a21.61,21.61,0,0,0,16.28,11.82l102.24,14.86a21.62,21.62,0,0,1,12,36.87l-74,72.12a21.62,21.62,0,0,0-6.22,19.14l17.47,101.83a21.62,21.62,0,0,1-31.37,22.79l-91.45-48.08a21.62,21.62,0,0,0-20.12,0l-91.45,48.08a21.62,21.62,0,0,1-31.37-22.79l17.47-101.83a21.65,21.65,0,0,0-6.22-19.14l-74-72.12a21.62,21.62,0,0,1,12-36.87l102.24-14.86A21.61,21.61,0,0,0,1180,887.91l45.72-92.65A21.62,21.62,0,0,1,1264.45,795.26Z"/><path class="cls-8" d="M1356.63,1209.87a61.75,61.75,0,0,1-28.67-7.13l-82.9-43.58-82.9,43.58a61.59,61.59,0,0,1-89.4-65l15.83-92.31-67.07-65.37A61.63,61.63,0,0,1,1055.67,875l92.69-13.46,41.44-84a61.62,61.62,0,0,1,110.52,0l41.44,84L1434.45,875a61.63,61.63,0,0,1,34.15,105.11l-67.07,65.37,15.83,92.31a61.67,61.67,0,0,1-60.73,72.08Z"/><path class="cls-9" d="M1356.63,1189.87a41.21,41.21,0,0,1-19.37-4.83L1245.81,1137a1.63,1.63,0,0,0-.75-.18,1.6,1.6,0,0,0-.75.18L1152.86,1185a41.46,41.46,0,0,1-51.27-10.09,41.39,41.39,0,0,1-9.12-33.78l17.47-101.83a1.64,1.64,0,0,0-.47-1.44l-74-72.12a41.61,41.61,0,0,1,23.07-71l102.24-14.86a1.63,1.63,0,0,0,1.22-.88l45.73-92.66a41.61,41.61,0,0,1,74.64,0l45.73,92.64a1.61,1.61,0,0,0,1.22.89l102.24,14.86a41.62,41.62,0,0,1,23.07,71l-74,72.11a1.64,1.64,0,0,0-.47,1.44l17.47,101.83a41.67,41.67,0,0,1-41,48.7Z"/><path class="cls-8" d="M1264.45,795.26l45.72,92.65a21.61,21.61,0,0,0,16.28,11.82l102.24,14.86a21.62,21.62,0,0,1,12,36.87l-74,72.12a21.62,21.62,0,0,0-6.22,19.14l17.47,101.83a21.62,21.62,0,0,1-31.37,22.79l-91.45-48.08a21.62,21.62,0,0,0-20.12,0l-91.45,48.08a21.62,21.62,0,0,1-31.37-22.79l17.47-101.83a21.65,21.65,0,0,0-6.22-19.14l-74-72.12a21.62,21.62,0,0,1,12-36.87l102.24-14.86A21.61,21.61,0,0,0,1180,887.91l45.72-92.65A21.62,21.62,0,0,1,1264.45,795.26Z"/></g><path class="cls-10" d="M954,1089.71H722.89c-175.76,0-411.72-98.74-460-341.26,0,0-16.81-105.68-16.81-185.64S244,460.23,260.76,326.51C277.66,191.73,299.05,21.6,872.38,69.37,1165.53,93.79,1180.43,183.54,1199.81,489,1468.67,508.48,1556.55,1100.89,954,1089.71Z"/><path class="cls-11" d="M757.68,376.57C757.68,474,686.43,541,589,541S424,474,424,376.57C424,373.23,757.68,373.23,757.68,376.57Z"/><line class="cls-12" x1="403.55" y1="352.74" x2="774.38" y2="352.74"/><path d="M575.49,367.15a75.13,75.13,0,1,0,141.11,0Z"/><path class="cls-11" d="M1235.17,364.53c0,97.47-69.39,176.48-166.86,176.48S901.46,462,901.46,364.53C901.46,361.19,1235.17,361.19,1235.17,364.53Z"/><path d="M1054.84,367.15a75.13,75.13,0,1,0,141.11,0Z"/><path class="cls-8" d="M589,684.45a819.52,819.52,0,0,0,249.25,43.2"/><path class="cls-8" d="M587.46,669.53a56.82,56.82,0,0,0-4.14,28.54"/><path class="cls-8" d="M843.12,711a68.1,68.1,0,0,1-4.85,32.4"/><path class="cls-4" d="M1292.51,449.44c11.23,195.8-314.17,214.47-325.41,18.68Z"/><path class="cls-4" d="M505.55,494.6,831,475.93C842.19,671.72,516.79,690.4,505.55,494.6Z"/><path class="cls-4" d="M831,475.93c48.69-14.37,94.52-18.57,136.14-7.81"/><line class="cls-4" x1="505.55" y1="494.6" x2="219.99" y2="398.51"/><line class="cls-4" x1="1298.03" y1="447.2" x2="1235.17" y2="409.2"/><path class="cls-13" d="M851.28,482.85s76.83-17.23,108.69,9.6c19.54,16.46-13,98.4-13,98.4"/><line class="cls-8" x1="872.88" y1="550.74" x2="862.6" y2="585.71"/><line class="cls-8" x1="911.74" y1="550.74" x2="901.46" y2="585.71"/><path class="cls-14" d="M702.14,147.54C654.73,146,604.08,164,552,190.74"/><path class="cls-14" d="M944.71,161.78c38.35-1.52,115.69,23.38,150.17,43.2"/><path d="M1120.09,147.44s-29.15-13.84-54.8-26.95C1099.08,131.66,1118.82,142,1120.09,147.44Z"/><path d="M1065.25,120.48C954.11,83.74,691.17,38.34,434.71,131.86,362.82,158.07,364,169.09,364,277.14l-59.26,8.66L292.25,407.51,256,416l9.51-124.46c10.75-94.43,60.75-160.7,156.6-194.08-10.55-51.24,595-35.36,605.06.71C1027.88,100.75,1045.53,110.39,1065.25,120.48Z"/><path class="cls-15" d="M705.2,510c-27.42,23.63-53.43,47-93.83,59"/><line class="cls-12" x1="887.01" y1="352.74" x2="1257.84" y2="352.74"/></g></g></svg>