<?xml version="1.0" encoding="UTF-8"?>
<svg id="Layer_2" data-name="Layer 2" xmlns="http://www.w3.org/2000/svg" viewBox="0 0 2098.23 508.93">
  <defs>
    <style>
      .cls-1, .cls-2 {
        stroke-width: 0px;
      }

      .cls-2 {
        fill: #fff;
      }
    </style>
  </defs>
  <g id="Layer_13_copy" data-name="Layer 13 copy">
    <g>
      <g>
        <g>
          <g id="c">
            <path class="cls-1" d="M232.12,422.12c-43.71-3.3-76.18-9-108.59-19.08-20.06-6.23-39.67-16.05-58.31-29.17-28.4-20-48.63-47.13-58.5-78.47-9.85-31.28-8.86-65.09,2.88-97.78,14.82-41.27,41.11-74.9,78.12-99.96,21.5-14.55,45.63-26.69,73.78-37.09C235.19,33.35,298.17,15.85,359.72,5.53c19.42-3.26,38.45-4.47,54.76-5.35,2.22-.12,4.47-.18,6.67-.18,23.77,0,46.35,6.68,67.11,19.85,22,13.97,35.51,36.5,37.06,61.83,1.56,25.56-9.25,49.83-29.65,66.59-13.73,11.27-29.5,17.23-45.61,17.23-8.25,0-16.31-1.56-23.98-4.63-.35-.02-.91-.04-1.76-.04-1.73,0-3.95.09-6.09.18-2.25.09-4.8.2-7.53.25-19.59.32-37.74,2.34-55.51,6.18-51.22,11.07-101.34,28.96-153.24,54.7-7.72,3.83-15.6,8.59-23.29,13.51,11.98,1.4,24.05,2.11,35.93,2.11,29.35,0,59.02-4.33,88.19-12.89,6.23-1.83,13.53-3.93,21.21-5.75,5.78-1.37,11.62-2.06,17.35-2.06,23.41,0,44.19,11.33,57.01,31.09,21.17,32.61,28.29,68.69,20.57,104.34-6.79,31.36-30.97,53.5-64.7,59.21l-5.48.93c-17.08,2.92-34.75,5.93-53.3,7.41-17.59,1.41-34.9,1.72-47.54,1.96-4.26.08-7.92.15-10.78.24l-2.5.08-2.5-.19Z"/>
          </g>
          <g id="C">
            <path class="cls-2" d="M234.48,390.85c-41.22-3.11-71.62-8.42-101.64-17.75-16.93-5.26-33.61-13.62-49.56-24.86-22.73-16-38.85-37.53-46.64-62.25-7.78-24.69-6.92-51.58,2.48-77.75,12.53-34.88,34.8-63.34,66.19-84.59,19.38-13.12,41.32-24.13,67.07-33.65,71.79-26.54,132.97-43.56,192.53-53.55,17.81-2.99,35.8-4.13,51.26-4.96,1.65-.09,3.33-.13,4.98-.13,17.73,0,34.65,5.04,50.3,14.97,13.41,8.51,21.63,22.09,22.56,37.26.94,15.4-5.71,30.14-18.25,40.44-8.05,6.61-16.94,10.1-25.71,10.1-4.43,0-8.76-.88-12.88-2.61-3.43-1.44-7.28-2.06-12.86-2.06-2.36,0-4.81.1-7.4.21-2.17.09-4.42.18-6.73.22-21.67.35-41.82,2.6-61.62,6.88-53.79,11.62-106.3,30.35-160.55,57.25-12.37,6.13-24.39,13.89-35.63,21.3-9.83,6.47-17.51,15.05-22.85,25.5-2.55,4.98-3.02,7.2-3.11,7.95.45.6,1.95,2.25,6.57,5.24,9.86,6.37,21.48,10.15,37.69,12.25,14.61,1.89,29.39,2.85,43.91,2.85,32.34,0,64.98-4.76,97.01-14.15,5.84-1.71,12.66-3.68,19.6-5.32,3.43-.81,6.84-1.22,10.13-1.22,12.77,0,23.67,5.97,30.71,16.81,16.76,25.81,22.22,52.93,16.22,80.62-4.04,18.65-18.36,31.37-39.29,34.92l-5.49.93c-16.42,2.8-33.4,5.7-50.55,7.07-16.64,1.33-33.39,1.64-45.63,1.86-4.37.08-8.14.15-11.21.25l-.81.03-.81-.06Z"/>
          </g>
        </g>
        <g>
          <g id="t">
            <path class="cls-1" d="M1256.05,489.59c-11.36,0-22.94-1.62-34.43-4.82-31.2-8.68-54.25-31.43-63.22-62.41-4.86-16.77-7.66-33.69-9.9-48.22-1.86-12.07-3.5-23.9-5.16-36.45-14.35-3.53-27.07-8.82-38.56-13.6l-.29-.12c-1.53-.64-3.06-1.27-4.59-1.9-27.38-11.26-43.79-37.74-42.83-69.1,1.12-36.31,20.34-66.1,52.74-81.73,10.24-4.94,19.7-9.59,28.7-14.12.5-2.95,1.12-6.09,1.96-9.38,2.71-10.63,6.49-23.1,13.9-35.06,7.67-12.37,18.69-23.18,31.05-30.45,12.02-7.07,25.48-10.8,38.91-10.8,29.54,0,55.7,17.64,67.85,45.33.8-.02,1.6-.03,2.4-.03.41,0,.82,0,1.24,0,35.09.4,66.91,17.58,85.14,45.93,18.3,28.48,20.69,64.76,6.39,97.06-11.43,25.81-30.89,45.06-56.76,56.37,3.74,8.96,8.3,17.74,13.62,26.24,6.29,10.05,11.13,19.5,14.79,28.88,12.51,32.07,4,65.67-22.2,87.69-24.22,20.36-51.39,30.69-80.73,30.69Z"/>
          </g>
          <g id="t-2" data-name="t">
            <path class="cls-2" d="M1256.05,458.22c-8.51,0-17.27-1.24-26.02-3.67-20.79-5.79-35.53-20.32-41.5-40.92-4.34-14.98-6.84-30.09-9.03-44.28-2.53-16.41-4.65-32.53-6.89-49.59-.41-3.15-.83-6.31-1.25-9.49-20.21-.87-37.65-8.12-54.54-15.15-1.67-.69-3.33-1.38-5-2.07-15.45-6.35-23.98-20.61-23.41-39.12.77-24.94,12.88-43.77,35.02-54.45,16.09-7.76,30.48-14.93,43.85-21.83.37-2.22.67-4.56.98-7.01.62-4.86,1.25-9.89,2.6-15.14,2.23-8.74,5.01-17.97,10.17-26.29,4.96-8,12.36-15.27,20.29-19.94,7.2-4.24,15.16-6.48,23.01-6.48,17.83,0,33.62,11.5,40.22,29.29,2.26,6.1,3.95,12.11,5.63,18.37,1.82-.22,3.64-.46,5.46-.71,6.04-.81,12.29-1.65,18.93-1.65.29,0,.59,0,.88,0,24.87.29,46.41,11.78,59.1,31.53,12.77,19.87,14.26,44.44,4.1,67.4-10.64,24.02-30.09,39.49-57.82,45.98-3.07.72-6.15,1.34-9.2,1.92.63,4.63,1.62,9.15,2.96,13.64,5.2,17.39,12.95,34.35,23.01,50.42,5.24,8.37,9.21,16.1,12.15,23.64,7.7,19.73,2.9,38.79-13.16,52.28-18.42,15.48-38.79,23.33-60.55,23.33Z"/>
          </g>
        </g>
        <g>
          <g id="e_2" data-name="e 2">
            <path class="cls-1" d="M1899.93,442.75c-14.4,0-28.73-1.37-42.6-4.07-23.75-4.63-45.28-13.4-64-26.06-37.8-25.56-52.08-62.85-59.53-88.68-11.85-41.08-8.67-84.15,9.46-128.01,15.56-37.65,44.15-64.62,82.66-78.01,26.36-9.16,50.64-13.62,74.22-13.62,10.93,0,21.84.98,32.44,2.92,30.05,5.5,54.51,19.06,72.69,40.31,14.08,16.45,22.67,34.73,25.52,54.33,2.09,14.36,1.04,28.92-3.14,43.43,13.87,1.29,27.11,6.57,38.63,15.46,25.25,19.49,36.32,49.31,30.36,81.81-4.27,23.27-17.85,42.12-40.36,56.04-23.58,14.58-48.31,22.52-70.14,29.52-30.65,9.83-58.85,14.61-86.2,14.62h-.02Z"/>
          </g>
          <g id="e_2-2" data-name="e 2">
            <path class="cls-2" d="M1899.95,411.38c-12.4,0-24.72-1.18-36.62-3.5-19.85-3.87-37-10.82-52.43-21.26-29.04-19.64-40.35-48.47-46.96-71.39-9.97-34.57-7.25-69.68,8.31-107.34,12.21-29.54,33.74-49.85,63.97-60.36,23-7.99,43.91-11.88,63.92-11.88,9.04,0,18.06.81,26.8,2.41,22.78,4.17,41.12,14.21,54.5,29.85,20.49,23.95,24.55,51.77,11.75,80.47-2.25,5.04-5.89,12.47-11.47,18.69-24.74,27.57-53.87,42.88-86.72,45.61.98.04,1.96.06,2.94.06h.85c24.21-.26,43.33-3.65,60.19-10.65,7.82-3.25,15.43-7.33,23.49-11.65,3.64-1.95,7.4-3.97,11.19-5.91.35-.18.71-.38,1.06-.58.52-.29,1.05-.59,1.58-.87,8.42-4.47,16.71-6.74,24.63-6.74,9.44,0,18.25,3.11,26.19,9.24,15.86,12.25,22.49,30.47,18.67,51.32-2.64,14.38-11.15,25.84-26.01,35.03-20.32,12.56-42.13,19.56-63.23,26.33-27.51,8.83-52.57,13.12-76.61,13.12Z"/>
          </g>
        </g>
        <g>
          <g id="a">
            <path class="cls-1" d="M1138,508.93c-24.72,0-47.79-8.79-68.61-26.14-17.42,4.68-34.09,6.46-49.82,7.86-1.12.1-2.24.19-3.36.29-3.72.31-7.57.63-9.56,1.1-10.02,2.33-20.14,3.52-30.07,3.52-42.83,0-80.66-21.5-103.8-58.98-9.08-14.7-15.31-30.85-19.07-49.38-6.72-33.17-4.33-64.28,7.11-92.49,11.39-28.08,31.52-52.69,59.84-73.13,25.87-18.68,55.63-28.15,88.45-28.15,14.03,0,28.73,1.78,43.71,5.29,23.52,5.51,43.61,19.62,59.69,41.92,12.25,16.98,23.43,34.17,33.23,51.08,14.99,25.87,28.71,46.19,43.17,63.92,5.51,6.76,11.85,15.07,17.06,25.38,5.88,11.64,9.76,22.45,11.88,33.04,4.69,23.51-.29,46.31-14.03,64.21-13.88,18.07-34.93,28.89-59.27,30.45-2.18.14-4.39.21-6.57.21Z"/>
          </g>
          <g id="a-2" data-name="a">
            <path class="cls-2" d="M1138,477.57c-17.65,0-34.39-6.7-49.77-19.92-3.94-3.38-7.35-7.01-10.6-10.61-20.36,8.18-40.43,10.56-60.83,12.38-1.06.09-2.13.18-3.2.27-5.06.42-9.84.82-14.06,1.81-7.69,1.79-15.41,2.7-22.96,2.7-31.71,0-59.81-16.07-77.11-44.09-7.1-11.5-12.01-24.3-15.01-39.13-5.61-27.66-3.5-53.32,6.25-76.26,9.28-21.84,25.54-41.25,48.32-57.7,20.42-14.74,44-22.21,70.09-22.21,11.62,0,23.92,1.5,36.55,4.46,15.94,3.74,29.88,13.74,41.41,29.73,11.64,16.14,22.25,32.44,31.53,48.46,15.85,27.35,30.47,48.97,46.01,68.02,4.45,5.46,9.52,12.07,13.37,19.69,4.58,9.08,7.57,17.27,9.12,25.04,2.9,14.51,0,28.35-8.15,38.96-8.29,10.79-21.22,17.28-36.4,18.25-1.52.1-3.05.15-4.56.15Z"/>
          </g>
        </g>
        <g>
          <g id="e_1" data-name="e 1">
            <path class="cls-1" d="M770.62,479.36c-24.83,0-49.83-2.69-74.32-7.98-25.46-5.51-49.21-17.12-70.6-34.5-36.32-29.52-52.87-70.63-47.86-118.88,1.24-11.94,3.81-24.31,8.09-38.94,8.66-29.58,23.89-54.31,45.29-73.49,21.23-19.04,48.14-32.24,79.99-39.25,11.28-2.48,23.21-3.74,35.46-3.74,3.52,0,7.1.11,10.64.32,26.83,1.61,50.74,11.98,69.15,30,18.03,17.65,29.04,40.98,31.85,67.45,2.18,20.61.22,39.83-5.84,57.38,23.65,8.39,41.1,28.55,47.4,56.07,5.26,22.98,1.34,46.01-11.03,64.86-11.96,18.23-30.59,30.5-52.45,34.58-21.85,4.07-43.97,6.14-65.73,6.14h-.01Z"/>
          </g>
          <g id="e_1-2" data-name="e 1">
            <path class="cls-2" d="M770.63,448c-22.61,0-45.38-2.45-67.7-7.28-20.59-4.46-39.92-13.94-57.45-28.18-27.71-22.52-40.31-54.09-36.44-91.3,1.04-10.01,3.26-20.61,7-33.37,14.21-48.57,48.5-79.16,101.91-90.92,9.07-2,18.73-3.01,28.71-3.01,2.91,0,5.86.09,8.77.26,38.72,2.32,67.53,30.22,71.68,69.44,3.76,35.51-7.96,64.46-34.03,84.68,8.28-.52,16.38-1.43,24.2-2.73,3.26-.54,6.47-.82,9.53-.82,21.43,0,37.3,13.46,42.46,36,3.33,14.57.96,29.01-6.67,40.65-7.23,11.02-18.58,18.46-31.97,20.96-19.96,3.72-40.15,5.61-59.99,5.61Z"/>
          </g>
        </g>
        <g>
          <g id="r">
            <path class="cls-1" d="M471.16,469.45c-6.91,0-14.07-.8-21.27-2.37-25.51-5.57-47.04-19.16-63.99-40.41-28.25-35.4-38.04-77.77-28.31-122.52,14.25-65.53,53.84-115.08,117.68-147.26,17.77-8.96,37.77-13.31,61.16-13.31.81,0,1.62,0,2.43.02.9-.02,1.8-.03,2.71-.03,22.2,0,43.98,5.3,64.73,15.76,8.39,4.23,15.56,8.63,21.92,13.45,26.62,20.17,41.13,48.82,39.81,78.6-1.31,29.67-18.2,56.79-46.32,74.42-8.77,5.5-17.44,9.05-24.41,11.9-2.68,1.1-5.21,2.13-7.26,3.08-4.66,2.15-9.29,4.23-13.78,6.25l-.26.12c-11.1,4.98-21.58,9.67-31.13,14.9-2.99,1.64-4.66,3.54-5.69,6.5,1.87,7.16,3.42,14.78,4.83,23.83,4.83,30.9-10.82,58.62-39.88,70.63-10.38,4.29-21.48,6.46-32.98,6.46Z"/>
          </g>
          <g id="r-2" data-name="r">
            <path class="cls-2" d="M471.16,438.09c-4.67,0-9.57-.55-14.58-1.65-18.29-3.99-33.82-13.86-46.16-29.33-22.17-27.78-29.83-61.08-22.17-96.3,12.14-55.83,46.17-98.2,101.15-125.92,13.28-6.7,28.67-9.95,47.03-9.95.85,0,1.71,0,2.57.02.86-.02,1.72-.03,2.58-.03,17.25,0,34.28,4.17,50.61,12.41,6.67,3.36,12.26,6.78,17.09,10.43,18.28,13.85,28.27,32.88,27.42,52.21-.86,19.5-12.1,36.99-31.65,49.24-6.48,4.06-13.17,6.8-19.63,9.44-3.01,1.23-5.86,2.4-8.56,3.65-4.57,2.12-9.21,4.19-13.69,6.2-11.68,5.24-22.72,10.19-33.34,16-10.22,5.59-17.17,13.95-20.65,24.86-1.83,5.72-2.02,10.83-.61,16.09,1.72,6.42,3.14,13.32,4.46,21.74,2.63,16.82-4.97,30.23-20.86,36.79-6.56,2.71-13.63,4.09-21.01,4.09Z"/>
          </g>
        </g>
        <g>
          <g id="v">
            <path class="cls-1" d="M1665.8,456.46c-11.53,0-23.37-1.44-35.19-4.29-47.73-11.5-85.53-40.25-109.32-83.12-11.96-21.55-23.37-43.5-34.41-64.74l-.05-.1c-4.21-8.09-8.41-16.18-12.65-24.25l-.73-1.38c-2.73-5.18-6.14-11.64-8.88-19.39-8.44-23.84-5.52-48.49,7.99-67.61,13.17-18.63,34.44-29.31,58.37-29.31,5.4,0,10.91.56,16.38,1.65,25.99,5.21,47.4,19.85,65.46,44.76,11.5,15.85,20.46,29.35,28.2,42.47,6.13,10.38,11.55,20.72,16.79,30.72,2.55,4.86,4.99,9.51,7.46,14.07.54-13.77-1.45-29.54-6.12-49.24-.3-1.25-.6-2.49-.9-3.73-1.48-6.11-3-12.4-4.17-19.5-1.56-9.41-2.03-17.91-1.45-25.97,1.14-15.89,7.53-30.45,18.01-41.01,10.79-10.87,25.19-16.86,40.56-16.86,11.67,0,23.48,3.52,34.15,10.19,12.85,8.03,24.1,19.34,31.68,31.85,8.18,13.51,13.95,28.07,16.68,42.12,2.87,14.79,4.69,29.23,6.44,43.2.66,5.29,1.35,10.77,2.08,16.09l.67,4.91-.38,4.94c-1.56,20.26-3.9,42.07-10.38,64.25-8.69,29.78-24.98,54.77-47.1,72.26-22.34,17.66-49.73,27-79.2,27Z"/>
          </g>
          <g id="v-2" data-name="v">
            <path class="cls-2" d="M1665.8,425.09c-9.06,0-18.43-1.15-27.84-3.42-38.97-9.39-69.83-32.85-89.24-67.84-11.77-21.21-23.1-43.01-34.05-64.08-4.22-8.13-8.45-16.25-12.7-24.36l-.75-1.42c-2.38-4.52-5.08-9.64-7.06-15.23-4.99-14.12-3.52-28.35,4.04-39.04,7.21-10.2,19.15-16.05,32.76-16.05,3.33,0,6.77.35,10.21,1.04,17.89,3.59,33.02,14.19,46.23,32.42,10.91,15.05,19.36,27.76,26.58,40,5.73,9.7,10.96,19.69,16.03,29.34,3.24,6.17,6.58,12.55,9.97,18.67.69,1.24,1.37,2.49,2.06,3.74,4.22,7.71,8.22,15,12.98,21.3,3.84,5.09,9.23,7.89,15.17,7.89,7.47,0,14.27-4.36,17.75-11.39,2.97-5.99,5.24-13.28,6.74-21.65,4.91-27.42-.11-54.78-5.03-75.55-.31-1.3-.62-2.6-.94-3.9-1.34-5.53-2.72-11.25-3.7-17.21-1.15-6.95-1.51-13.04-1.12-18.61,1.21-16.92,12.43-28.74,27.28-28.74,5.87,0,11.77,1.82,17.53,5.42,8.76,5.48,16.39,13.11,21.47,21.5,6.29,10.38,10.69,21.4,12.72,31.85,2.67,13.75,4.42,27.67,6.1,41.12.68,5.41,1.38,11,2.12,16.44l.22,1.59-.12,1.6c-1.43,18.58-3.54,38.45-9.21,57.88-6.78,23.24-19.16,42.58-35.81,55.95-16.88,13.56-37.76,20.72-60.39,20.72Z"/>
          </g>
        </g>
        <g>
          <g id="i">
            <path class="cls-1" d="M1466.62,473.04c-31.72,0-57.97-21.41-66.88-54.53-2.65-9.85-4.62-20.23-6.39-33.65-2.42-18.36-9.01-34-20.14-47.82-9.56-11.86-18.68-25.43-28.69-42.72-7.45-12.85-16.83-32.68-12.37-56.41,5.96-31.72,32.53-48.39,41.26-53.87,14.36-9.01,30.74-13.77,47.37-13.77,25.45,0,49.19,10.74,66.85,30.24,9.71,10.72,15.89,22.32,20.87,31.63l.15.28c3.73,6.99,6.99,13.78,10.14,20.35,2.98,6.2,5.75,11.99,8.63,17.35,11.61,21.62,23.99,47.95,27.76,79.23,1.31,10.87,1.24,20.92,1.19,28.25-.01,1.83-.03,3.9,0,5.07l.18,7.62-2.27,7.28c-6.56,21.02-19.17,50.85-52.92,67.1-11.51,5.54-23.2,8.35-34.73,8.35Z"/>
            <path class="cls-1" d="M1445.36,206.65c-48.48,0-88.65-40-89.54-89.16-.43-23.6,8.33-45.83,24.67-62.59,16.17-16.59,37.85-25.82,61.04-25.99h.59c48.96,0,89.06,40.21,89.44,89.63.18,23.76-8.78,46.01-25.23,62.66-16.12,16.31-37.64,25.35-60.6,25.45h-.37Z"/>
          </g>
          <g id="i-2" data-name="i">
            <path class="cls-2" d="M1466.62,441.68c-17.64,0-31.32-11.71-36.59-31.31-2.28-8.46-4-17.59-5.58-29.59-3.19-24.23-11.97-44.97-26.82-63.41-8.53-10.58-16.78-22.9-25.97-38.76-11.16-19.27-19.16-44.41,18.42-67.99,9.36-5.87,19.97-8.98,30.7-8.98,16.48,0,31.96,7.08,43.59,19.92,7.1,7.85,12.07,17.15,16.45,25.35l.16.3c3.42,6.4,6.54,12.92,9.56,19.21,3.1,6.46,6.02,12.56,9.24,18.54,10.23,19.05,21.11,42.04,24.25,68.15,1.07,8.88,1.01,17.78.96,24.28-.02,2.37-.03,4.41,0,6.03l.06,2.47-.73,2.35c-5.22,16.74-14.1,37.35-36.58,48.18-7.23,3.48-14.33,5.25-21.12,5.25Z"/>
            <path class="cls-2" d="M1445.36,175.28c-31.5,0-57.6-26.18-58.18-58.36-.28-15.16,5.33-29.41,15.77-40.12,10.28-10.54,24.06-16.41,38.81-16.52h.42c31.75,0,57.77,26.24,58.02,58.5.12,15.36-5.63,29.7-16.17,40.37-10.22,10.34-23.86,16.07-38.42,16.13h-.24Z"/>
          </g>
        </g>
        <g>
          <path class="cls-1" d="M556.7,132.78l22.49-112.44h55.99c32.85,0,44.56,17.91,44.56,34.67,0,8.16-2.49,15.52-7.13,21.59,2.28,4.43,3.48,9.46,3.48,14.91,0,25.07-21,41.26-53.51,41.26h-65.88ZM627.01,52.01h0Z"/>
          <path class="cls-1" d="M707.67,132.78l-1.13-2.01-.4,2.01h-58.4l22.49-112.44h49.28c29.93,0,49.27,16.52,49.27,42.09,0,14.89-6.1,27.79-16.88,36.71l19.29,33.64h-63.52Z"/>
          <polygon class="cls-1" points="818.28 132.78 817.46 125.22 813.52 132.78 761.31 132.78 747.82 20.35 805.57 20.35 806.87 31.85 812.87 20.35 861.11 20.35 862.21 31.43 867.98 20.35 929.11 20.35 870.64 132.78 818.28 132.78"/>
          <polygon class="cls-1" points="944.08 132.78 936.03 119.73 933.43 132.78 875.74 132.78 898.23 20.35 941.75 20.35 949.79 33.39 952.4 20.35 1010.08 20.35 987.6 132.78 944.08 132.78"/>
        </g>
      </g>
      <g>
        <g>
          <g id="c-2" data-name="c">
            <path class="cls-2" d="M232.12,422.12c-43.71-3.3-76.18-9-108.59-19.08-20.06-6.23-39.67-16.05-58.31-29.17-28.4-20-48.63-47.13-58.5-78.47-9.85-31.28-8.86-65.09,2.88-97.78,14.82-41.27,41.11-74.9,78.12-99.96,21.5-14.55,45.63-26.69,73.78-37.09C235.19,33.35,298.17,15.85,359.72,5.53c19.42-3.26,38.45-4.47,54.76-5.35,2.22-.12,4.47-.18,6.67-.18,23.77,0,46.35,6.68,67.11,19.85,22,13.97,35.51,36.5,37.06,61.83,1.56,25.56-9.25,49.83-29.65,66.59-13.73,11.27-29.5,17.23-45.61,17.23-8.25,0-16.31-1.56-23.98-4.63-.35-.02-.91-.04-1.76-.04-1.73,0-3.95.09-6.09.18-2.25.09-4.8.2-7.53.25-19.59.32-37.74,2.34-55.51,6.18-51.22,11.07-101.34,28.96-153.24,54.7-7.72,3.83-15.6,8.59-23.29,13.51,11.98,1.4,24.05,2.11,35.93,2.11,29.35,0,59.02-4.33,88.19-12.89,6.23-1.83,13.53-3.93,21.21-5.75,5.78-1.37,11.62-2.06,17.35-2.06,23.41,0,44.19,11.33,57.01,31.09,21.17,32.61,28.29,68.69,20.57,104.34-6.79,31.36-30.97,53.5-64.7,59.21l-5.48.93c-17.08,2.92-34.75,5.93-53.3,7.41-17.59,1.41-34.9,1.72-47.54,1.96-4.26.08-7.92.15-10.78.24l-2.5.08-2.5-.19Z"/>
            <path class="cls-2" d="M232.12,422.12c-43.71-3.3-76.18-9-108.59-19.08-20.06-6.23-39.67-16.05-58.31-29.17-28.4-20-48.63-47.13-58.5-78.47-9.85-31.28-8.86-65.09,2.88-97.78,14.82-41.27,41.11-74.9,78.12-99.96,21.5-14.55,45.63-26.69,73.78-37.09C235.19,33.35,298.17,15.85,359.72,5.53c19.42-3.26,38.45-4.47,54.76-5.35,2.22-.12,4.47-.18,6.67-.18,23.77,0,46.35,6.68,67.11,19.85,22,13.97,35.51,36.5,37.06,61.83,1.56,25.56-9.25,49.83-29.65,66.59-13.73,11.27-29.5,17.23-45.61,17.23-8.25,0-16.31-1.56-23.98-4.63-.35-.02-.91-.04-1.76-.04-1.73,0-3.95.09-6.09.18-2.25.09-4.8.2-7.53.25-19.59.32-37.74,2.34-55.51,6.18-51.22,11.07-101.34,28.96-153.24,54.7-7.72,3.83-15.6,8.59-23.29,13.51,11.98,1.4,24.05,2.11,35.93,2.11,29.35,0,59.02-4.33,88.19-12.89,6.23-1.83,13.53-3.93,21.21-5.75,5.78-1.37,11.62-2.06,17.35-2.06,23.41,0,44.19,11.33,57.01,31.09,21.17,32.61,28.29,68.69,20.57,104.34-6.79,31.36-30.97,53.5-64.7,59.21l-5.48.93c-17.08,2.92-34.75,5.93-53.3,7.41-17.59,1.41-34.9,1.72-47.54,1.96-4.26.08-7.92.15-10.78.24l-2.5.08-2.5-.19Z"/>
          </g>
          <g id="C-2" data-name="C">
            <path class="cls-2" d="M234.48,390.85c-41.22-3.11-71.62-8.42-101.64-17.75-16.93-5.26-33.61-13.62-49.56-24.86-22.73-16-38.85-37.53-46.64-62.25-7.78-24.69-6.92-51.58,2.48-77.75,12.53-34.88,34.8-63.34,66.19-84.59,19.38-13.12,41.32-24.13,67.07-33.65,71.79-26.54,132.97-43.56,192.53-53.55,17.81-2.99,35.8-4.13,51.26-4.96,1.65-.09,3.33-.13,4.98-.13,17.73,0,34.65,5.04,50.3,14.97,13.41,8.51,21.63,22.09,22.56,37.26.94,15.4-5.71,30.14-18.25,40.44-8.05,6.61-16.94,10.1-25.71,10.1-4.43,0-8.76-.88-12.88-2.61-3.43-1.44-7.28-2.06-12.86-2.06-2.36,0-4.81.1-7.4.21-2.17.09-4.42.18-6.73.22-21.67.35-41.82,2.6-61.62,6.88-53.79,11.62-106.3,30.35-160.55,57.25-12.37,6.13-24.39,13.89-35.63,21.3-9.83,6.47-17.51,15.05-22.85,25.5-2.55,4.98-3.02,7.2-3.11,7.95.45.6,1.95,2.25,6.57,5.24,9.86,6.37,21.48,10.15,37.69,12.25,14.61,1.89,29.39,2.85,43.91,2.85,32.34,0,64.98-4.76,97.01-14.15,5.84-1.71,12.66-3.68,19.6-5.32,3.43-.81,6.84-1.22,10.13-1.22,12.77,0,23.67,5.97,30.71,16.81,16.76,25.81,22.22,52.93,16.22,80.62-4.04,18.65-18.36,31.37-39.29,34.92l-5.49.93c-16.42,2.8-33.4,5.7-50.55,7.07-16.64,1.33-33.39,1.64-45.63,1.86-4.37.08-8.14.15-11.21.25l-.81.03-.81-.06Z"/>
            <path class="cls-2" d="M234.48,390.85c-41.22-3.11-71.62-8.42-101.64-17.75-16.93-5.26-33.61-13.62-49.56-24.86-22.73-16-38.85-37.53-46.64-62.25-7.78-24.69-6.92-51.58,2.48-77.75,12.53-34.88,34.8-63.34,66.19-84.59,19.38-13.12,41.32-24.13,67.07-33.65,71.79-26.54,132.97-43.56,192.53-53.55,17.81-2.99,35.8-4.13,51.26-4.96,1.65-.09,3.33-.13,4.98-.13,17.73,0,34.65,5.04,50.3,14.97,13.41,8.51,21.63,22.09,22.56,37.26.94,15.4-5.71,30.14-18.25,40.44-8.05,6.61-16.94,10.1-25.71,10.1-4.43,0-8.76-.88-12.88-2.61-3.43-1.44-7.28-2.06-12.86-2.06-2.36,0-4.81.1-7.4.21-2.17.09-4.42.18-6.73.22-21.67.35-41.82,2.6-61.62,6.88-53.79,11.62-106.3,30.35-160.55,57.25-12.37,6.13-24.39,13.89-35.63,21.3-9.83,6.47-17.51,15.05-22.85,25.5-2.55,4.98-3.02,7.2-3.11,7.95.45.6,1.95,2.25,6.57,5.24,9.86,6.37,21.48,10.15,37.69,12.25,14.61,1.89,29.39,2.85,43.91,2.85,32.34,0,64.98-4.76,97.01-14.15,5.84-1.71,12.66-3.68,19.6-5.32,3.43-.81,6.84-1.22,10.13-1.22,12.77,0,23.67,5.97,30.71,16.81,16.76,25.81,22.22,52.93,16.22,80.62-4.04,18.65-18.36,31.37-39.29,34.92l-5.49.93c-16.42,2.8-33.4,5.7-50.55,7.07-16.64,1.33-33.39,1.64-45.63,1.86-4.37.08-8.14.15-11.21.25l-.81.03-.81-.06Z"/>
          </g>
        </g>
        <g>
          <g id="t-3" data-name="t">
            <path class="cls-2" d="M1256.05,489.59c-11.36,0-22.94-1.62-34.43-4.82-31.2-8.68-54.25-31.43-63.22-62.41-4.86-16.77-7.66-33.69-9.9-48.22-1.86-12.07-3.5-23.9-5.16-36.45-14.35-3.53-27.07-8.82-38.56-13.6l-.29-.12c-1.53-.64-3.06-1.27-4.59-1.9-27.38-11.26-43.79-37.74-42.83-69.1,1.12-36.31,20.34-66.1,52.74-81.73,10.24-4.94,19.7-9.59,28.7-14.12.5-2.95,1.12-6.09,1.96-9.38,2.71-10.63,6.49-23.1,13.9-35.06,7.67-12.37,18.69-23.18,31.05-30.45,12.02-7.07,25.48-10.8,38.91-10.8,29.54,0,55.7,17.64,67.85,45.33.8-.02,1.6-.03,2.4-.03.41,0,.82,0,1.24,0,35.09.4,66.91,17.58,85.14,45.93,18.3,28.48,20.69,64.76,6.39,97.06-11.43,25.81-30.89,45.06-56.76,56.37,3.74,8.96,8.3,17.74,13.62,26.24,6.29,10.05,11.13,19.5,14.79,28.88,12.51,32.07,4,65.67-22.2,87.69-24.22,20.36-51.39,30.69-80.73,30.69Z"/>
            <path class="cls-2" d="M1256.05,489.59c-11.36,0-22.94-1.62-34.43-4.82-31.2-8.68-54.25-31.43-63.22-62.41-4.86-16.77-7.66-33.69-9.9-48.22-1.86-12.07-3.5-23.9-5.16-36.45-14.35-3.53-27.07-8.82-38.56-13.6l-.29-.12c-1.53-.64-3.06-1.27-4.59-1.9-27.38-11.26-43.79-37.74-42.83-69.1,1.12-36.31,20.34-66.1,52.74-81.73,10.24-4.94,19.7-9.59,28.7-14.12.5-2.95,1.12-6.09,1.96-9.38,2.71-10.63,6.49-23.1,13.9-35.06,7.67-12.37,18.69-23.18,31.05-30.45,12.02-7.07,25.48-10.8,38.91-10.8,29.54,0,55.7,17.64,67.85,45.33.8-.02,1.6-.03,2.4-.03.41,0,.82,0,1.24,0,35.09.4,66.91,17.58,85.14,45.93,18.3,28.48,20.69,64.76,6.39,97.06-11.43,25.81-30.89,45.06-56.76,56.37,3.74,8.96,8.3,17.74,13.62,26.24,6.29,10.05,11.13,19.5,14.79,28.88,12.51,32.07,4,65.67-22.2,87.69-24.22,20.36-51.39,30.69-80.73,30.69Z"/>
          </g>
          <g id="t-4" data-name="t">
            <path class="cls-2" d="M1256.05,458.22c-8.51,0-17.27-1.24-26.02-3.67-20.79-5.79-35.53-20.32-41.5-40.92-4.34-14.98-6.84-30.09-9.03-44.28-2.53-16.41-4.65-32.53-6.89-49.59-.41-3.15-.83-6.31-1.25-9.49-20.21-.87-37.65-8.12-54.54-15.15-1.67-.69-3.33-1.38-5-2.07-15.45-6.35-23.98-20.61-23.41-39.12.77-24.94,12.88-43.77,35.02-54.45,16.09-7.76,30.48-14.93,43.85-21.83.37-2.22.67-4.56.98-7.01.62-4.86,1.25-9.89,2.6-15.14,2.23-8.74,5.01-17.97,10.17-26.29,4.96-8,12.36-15.27,20.29-19.94,7.2-4.24,15.16-6.48,23.01-6.48,17.83,0,33.62,11.5,40.22,29.29,2.26,6.1,3.95,12.11,5.63,18.37,1.82-.22,3.64-.46,5.46-.71,6.04-.81,12.29-1.65,18.93-1.65.29,0,.59,0,.88,0,24.87.29,46.41,11.78,59.1,31.53,12.77,19.87,14.26,44.44,4.1,67.4-10.64,24.02-30.09,39.49-57.82,45.98-3.07.72-6.15,1.34-9.2,1.92.63,4.63,1.62,9.15,2.96,13.64,5.2,17.39,12.95,34.35,23.01,50.42,5.24,8.37,9.21,16.1,12.15,23.64,7.7,19.73,2.9,38.79-13.16,52.28-18.42,15.48-38.79,23.33-60.55,23.33Z"/>
            <path class="cls-2" d="M1256.05,458.22c-8.51,0-17.27-1.24-26.02-3.67-20.79-5.79-35.53-20.32-41.5-40.92-4.34-14.98-6.84-30.09-9.03-44.28-2.53-16.41-4.65-32.53-6.89-49.59-.41-3.15-.83-6.31-1.25-9.49-20.21-.87-37.65-8.12-54.54-15.15-1.67-.69-3.33-1.38-5-2.07-15.45-6.35-23.98-20.61-23.41-39.12.77-24.94,12.88-43.77,35.02-54.45,16.09-7.76,30.48-14.93,43.85-21.83.37-2.22.67-4.56.98-7.01.62-4.86,1.25-9.89,2.6-15.14,2.23-8.74,5.01-17.97,10.17-26.29,4.96-8,12.36-15.27,20.29-19.94,7.2-4.24,15.16-6.48,23.01-6.48,17.83,0,33.62,11.5,40.22,29.29,2.26,6.1,3.95,12.11,5.63,18.37,1.82-.22,3.64-.46,5.46-.71,6.04-.81,12.29-1.65,18.93-1.65.29,0,.59,0,.88,0,24.87.29,46.41,11.78,59.1,31.53,12.77,19.87,14.26,44.44,4.1,67.4-10.64,24.02-30.09,39.49-57.82,45.98-3.07.72-6.15,1.34-9.2,1.92.63,4.63,1.62,9.15,2.96,13.64,5.2,17.39,12.95,34.35,23.01,50.42,5.24,8.37,9.21,16.1,12.15,23.64,7.7,19.73,2.9,38.79-13.16,52.28-18.42,15.48-38.79,23.33-60.55,23.33Z"/>
          </g>
        </g>
        <g>
          <g id="e_2-3" data-name="e 2">
            <path class="cls-2" d="M1899.93,442.75c-14.4,0-28.73-1.37-42.6-4.07-23.75-4.63-45.28-13.4-64-26.06-37.8-25.56-52.08-62.85-59.53-88.68-11.85-41.08-8.67-84.15,9.46-128.01,15.56-37.65,44.15-64.62,82.66-78.01,26.36-9.16,50.64-13.62,74.22-13.62,10.93,0,21.84.98,32.44,2.92,30.05,5.5,54.51,19.06,72.69,40.31,14.08,16.45,22.67,34.73,25.52,54.33,2.09,14.36,1.04,28.92-3.14,43.43,13.87,1.29,27.11,6.57,38.63,15.46,25.25,19.49,36.32,49.31,30.36,81.81-4.27,23.27-17.85,42.12-40.36,56.04-23.58,14.58-48.31,22.52-70.14,29.52-30.65,9.83-58.85,14.61-86.2,14.62h-.02Z"/>
            <path class="cls-2" d="M1899.93,442.75c-14.4,0-28.73-1.37-42.6-4.07-23.75-4.63-45.28-13.4-64-26.06-37.8-25.56-52.08-62.85-59.53-88.68-11.85-41.08-8.67-84.15,9.46-128.01,15.56-37.65,44.15-64.62,82.66-78.01,26.36-9.16,50.64-13.62,74.22-13.62,10.93,0,21.84.98,32.44,2.92,30.05,5.5,54.51,19.06,72.69,40.31,14.08,16.45,22.67,34.73,25.52,54.33,2.09,14.36,1.04,28.92-3.14,43.43,13.87,1.29,27.11,6.57,38.63,15.46,25.25,19.49,36.32,49.31,30.36,81.81-4.27,23.27-17.85,42.12-40.36,56.04-23.58,14.58-48.31,22.52-70.14,29.52-30.65,9.83-58.85,14.61-86.2,14.62h-.02Z"/>
          </g>
          <g id="e_2-4" data-name="e 2">
            <path class="cls-2" d="M1899.95,411.38c-12.4,0-24.72-1.18-36.62-3.5-19.85-3.87-37-10.82-52.43-21.26-29.04-19.64-40.35-48.47-46.96-71.39-9.97-34.57-7.25-69.68,8.31-107.34,12.21-29.54,33.74-49.85,63.97-60.36,23-7.99,43.91-11.88,63.92-11.88,9.04,0,18.06.81,26.8,2.41,22.78,4.17,41.12,14.21,54.5,29.85,20.49,23.95,24.55,51.77,11.75,80.47-2.25,5.04-5.89,12.47-11.47,18.69-24.74,27.57-53.87,42.88-86.72,45.61.98.04,1.96.06,2.94.06h.85c24.21-.26,43.33-3.65,60.19-10.65,7.82-3.25,15.43-7.33,23.49-11.65,3.64-1.95,7.4-3.97,11.19-5.91.35-.18.71-.38,1.06-.58.52-.29,1.05-.59,1.58-.87,8.42-4.47,16.71-6.74,24.63-6.74,9.44,0,18.25,3.11,26.19,9.24,15.86,12.25,22.49,30.47,18.67,51.32-2.64,14.38-11.15,25.84-26.01,35.03-20.32,12.56-42.13,19.56-63.23,26.33-27.51,8.83-52.57,13.12-76.61,13.12Z"/>
            <path class="cls-2" d="M1899.95,411.38c-12.4,0-24.72-1.18-36.62-3.5-19.85-3.87-37-10.82-52.43-21.26-29.04-19.64-40.35-48.47-46.96-71.39-9.97-34.57-7.25-69.68,8.31-107.34,12.21-29.54,33.74-49.85,63.97-60.36,23-7.99,43.91-11.88,63.92-11.88,9.04,0,18.06.81,26.8,2.41,22.78,4.17,41.12,14.21,54.5,29.85,20.49,23.95,24.55,51.77,11.75,80.47-2.25,5.04-5.89,12.47-11.47,18.69-24.74,27.57-53.87,42.88-86.72,45.61.98.04,1.96.06,2.94.06h.85c24.21-.26,43.33-3.65,60.19-10.65,7.82-3.25,15.43-7.33,23.49-11.65,3.64-1.95,7.4-3.97,11.19-5.91.35-.18.71-.38,1.06-.58.52-.29,1.05-.59,1.58-.87,8.42-4.47,16.71-6.74,24.63-6.74,9.44,0,18.25,3.11,26.19,9.24,15.86,12.25,22.49,30.47,18.67,51.32-2.64,14.38-11.15,25.84-26.01,35.03-20.32,12.56-42.13,19.56-63.23,26.33-27.51,8.83-52.57,13.12-76.61,13.12Z"/>
          </g>
        </g>
        <g>
          <g id="a-3" data-name="a">
            <path class="cls-2" d="M1138,508.93c-24.72,0-47.79-8.79-68.61-26.14-17.42,4.68-34.09,6.46-49.82,7.86-1.12.1-2.24.19-3.36.29-3.72.31-7.57.63-9.56,1.1-10.02,2.33-20.14,3.52-30.07,3.52-42.83,0-80.66-21.5-103.8-58.98-9.08-14.7-15.31-30.85-19.07-49.38-6.72-33.17-4.33-64.28,7.11-92.49,11.39-28.08,31.52-52.69,59.84-73.13,25.87-18.68,55.63-28.15,88.45-28.15,14.03,0,28.73,1.78,43.71,5.29,23.52,5.51,43.61,19.62,59.69,41.92,12.25,16.98,23.43,34.17,33.23,51.08,14.99,25.87,28.71,46.19,43.17,63.92,5.51,6.76,11.85,15.07,17.06,25.38,5.88,11.64,9.76,22.45,11.88,33.04,4.69,23.51-.29,46.31-14.03,64.21-13.88,18.07-34.93,28.89-59.27,30.45-2.18.14-4.39.21-6.57.21Z"/>
            <path class="cls-2" d="M1138,508.93c-24.72,0-47.79-8.79-68.61-26.14-17.42,4.68-34.09,6.46-49.82,7.86-1.12.1-2.24.19-3.36.29-3.72.31-7.57.63-9.56,1.1-10.02,2.33-20.14,3.52-30.07,3.52-42.83,0-80.66-21.5-103.8-58.98-9.08-14.7-15.31-30.85-19.07-49.38-6.72-33.17-4.33-64.28,7.11-92.49,11.39-28.08,31.52-52.69,59.84-73.13,25.87-18.68,55.63-28.15,88.45-28.15,14.03,0,28.73,1.78,43.71,5.29,23.52,5.51,43.61,19.62,59.69,41.92,12.25,16.98,23.43,34.17,33.23,51.08,14.99,25.87,28.71,46.19,43.17,63.92,5.51,6.76,11.85,15.07,17.06,25.38,5.88,11.64,9.76,22.45,11.88,33.04,4.69,23.51-.29,46.31-14.03,64.21-13.88,18.07-34.93,28.89-59.27,30.45-2.18.14-4.39.21-6.57.21Z"/>
          </g>
          <g id="a-4" data-name="a">
            <path class="cls-2" d="M1138,477.57c-17.65,0-34.39-6.7-49.77-19.92-3.94-3.38-7.35-7.01-10.6-10.61-20.36,8.18-40.43,10.56-60.83,12.38-1.06.09-2.13.18-3.2.27-5.06.42-9.84.82-14.06,1.81-7.69,1.79-15.41,2.7-22.96,2.7-31.71,0-59.81-16.07-77.11-44.09-7.1-11.5-12.01-24.3-15.01-39.13-5.61-27.66-3.5-53.32,6.25-76.26,9.28-21.84,25.54-41.25,48.32-57.7,20.42-14.74,44-22.21,70.09-22.21,11.62,0,23.92,1.5,36.55,4.46,15.94,3.74,29.88,13.74,41.41,29.73,11.64,16.14,22.25,32.44,31.53,48.46,15.85,27.35,30.47,48.97,46.01,68.02,4.45,5.46,9.52,12.07,13.37,19.69,4.58,9.08,7.57,17.27,9.12,25.04,2.9,14.51,0,28.35-8.15,38.96-8.29,10.79-21.22,17.28-36.4,18.25-1.52.1-3.05.15-4.56.15Z"/>
            <path class="cls-2" d="M1138,477.57c-17.65,0-34.39-6.7-49.77-19.92-3.94-3.38-7.35-7.01-10.6-10.61-20.36,8.18-40.43,10.56-60.83,12.38-1.06.09-2.13.18-3.2.27-5.06.42-9.84.82-14.06,1.81-7.69,1.79-15.41,2.7-22.96,2.7-31.71,0-59.81-16.07-77.11-44.09-7.1-11.5-12.01-24.3-15.01-39.13-5.61-27.66-3.5-53.32,6.25-76.26,9.28-21.84,25.54-41.25,48.32-57.7,20.42-14.74,44-22.21,70.09-22.21,11.62,0,23.92,1.5,36.55,4.46,15.94,3.74,29.88,13.74,41.41,29.73,11.64,16.14,22.25,32.44,31.53,48.46,15.85,27.35,30.47,48.97,46.01,68.02,4.45,5.46,9.52,12.07,13.37,19.69,4.58,9.08,7.57,17.27,9.12,25.04,2.9,14.51,0,28.35-8.15,38.96-8.29,10.79-21.22,17.28-36.4,18.25-1.52.1-3.05.15-4.56.15Z"/>
          </g>
        </g>
        <g>
          <g id="e_1-3" data-name="e 1">
            <path class="cls-2" d="M770.62,479.36c-24.83,0-49.83-2.69-74.32-7.98-25.46-5.51-49.21-17.12-70.6-34.5-36.32-29.52-52.87-70.63-47.86-118.88,1.24-11.94,3.81-24.31,8.09-38.94,8.66-29.58,23.89-54.31,45.29-73.49,21.23-19.04,48.14-32.24,79.99-39.25,11.28-2.48,23.21-3.74,35.46-3.74,3.52,0,7.1.11,10.64.32,26.83,1.61,50.74,11.98,69.15,30,18.03,17.65,29.04,40.98,31.85,67.45,2.18,20.61.22,39.83-5.84,57.38,23.65,8.39,41.1,28.55,47.4,56.07,5.26,22.98,1.34,46.01-11.03,64.86-11.96,18.23-30.59,30.5-52.45,34.58-21.85,4.07-43.97,6.14-65.73,6.14h-.01Z"/>
            <path class="cls-2" d="M770.62,479.36c-24.83,0-49.83-2.69-74.32-7.98-25.46-5.51-49.21-17.12-70.6-34.5-36.32-29.52-52.87-70.63-47.86-118.88,1.24-11.94,3.81-24.31,8.09-38.94,8.66-29.58,23.89-54.31,45.29-73.49,21.23-19.04,48.14-32.24,79.99-39.25,11.28-2.48,23.21-3.74,35.46-3.74,3.52,0,7.1.11,10.64.32,26.83,1.61,50.74,11.98,69.15,30,18.03,17.65,29.04,40.98,31.85,67.45,2.18,20.61.22,39.83-5.84,57.38,23.65,8.39,41.1,28.55,47.4,56.07,5.26,22.98,1.34,46.01-11.03,64.86-11.96,18.23-30.59,30.5-52.45,34.58-21.85,4.07-43.97,6.14-65.73,6.14h-.01Z"/>
          </g>
          <g id="e_1-4" data-name="e 1">
            <path class="cls-2" d="M770.63,448c-22.61,0-45.38-2.45-67.7-7.28-20.59-4.46-39.92-13.94-57.45-28.18-27.71-22.52-40.31-54.09-36.44-91.3,1.04-10.01,3.26-20.61,7-33.37,14.21-48.57,48.5-79.16,101.91-90.92,9.07-2,18.73-3.01,28.71-3.01,2.91,0,5.86.09,8.77.26,38.72,2.32,67.53,30.22,71.68,69.44,3.76,35.51-7.96,64.46-34.03,84.68,8.28-.52,16.38-1.43,24.2-2.73,3.26-.54,6.47-.82,9.53-.82,21.43,0,37.3,13.46,42.46,36,3.33,14.57.96,29.01-6.67,40.65-7.23,11.02-18.58,18.46-31.97,20.96-19.96,3.72-40.15,5.61-59.99,5.61Z"/>
            <path class="cls-2" d="M770.63,448c-22.61,0-45.38-2.45-67.7-7.28-20.59-4.46-39.92-13.94-57.45-28.18-27.71-22.52-40.31-54.09-36.44-91.3,1.04-10.01,3.26-20.61,7-33.37,14.21-48.57,48.5-79.16,101.91-90.92,9.07-2,18.73-3.01,28.71-3.01,2.91,0,5.86.09,8.77.26,38.72,2.32,67.53,30.22,71.68,69.44,3.76,35.51-7.96,64.46-34.03,84.68,8.28-.52,16.38-1.43,24.2-2.73,3.26-.54,6.47-.82,9.53-.82,21.43,0,37.3,13.46,42.46,36,3.33,14.57.96,29.01-6.67,40.65-7.23,11.02-18.58,18.46-31.97,20.96-19.96,3.72-40.15,5.61-59.99,5.61Z"/>
          </g>
        </g>
        <g>
          <g id="r-3" data-name="r">
            <path class="cls-2" d="M471.16,469.45c-6.91,0-14.07-.8-21.27-2.37-25.51-5.57-47.04-19.16-63.99-40.41-28.25-35.4-38.04-77.77-28.31-122.52,14.25-65.53,53.84-115.08,117.68-147.26,17.77-8.96,37.77-13.31,61.16-13.31.81,0,1.62,0,2.43.02.9-.02,1.8-.03,2.71-.03,22.2,0,43.98,5.3,64.73,15.76,8.39,4.23,15.56,8.63,21.92,13.45,26.62,20.17,41.13,48.82,39.81,78.6-1.31,29.67-18.2,56.79-46.32,74.42-8.77,5.5-17.44,9.05-24.41,11.9-2.68,1.1-5.21,2.13-7.26,3.08-4.66,2.15-9.29,4.23-13.78,6.25l-.26.12c-11.1,4.98-21.58,9.67-31.13,14.9-2.99,1.64-4.66,3.54-5.69,6.5,1.87,7.16,3.42,14.78,4.83,23.83,4.83,30.9-10.82,58.62-39.88,70.63-10.38,4.29-21.48,6.46-32.98,6.46Z"/>
            <path class="cls-2" d="M471.16,469.45c-6.91,0-14.07-.8-21.27-2.37-25.51-5.57-47.04-19.16-63.99-40.41-28.25-35.4-38.04-77.77-28.31-122.52,14.25-65.53,53.84-115.08,117.68-147.26,17.77-8.96,37.77-13.31,61.16-13.31.81,0,1.62,0,2.43.02.9-.02,1.8-.03,2.71-.03,22.2,0,43.98,5.3,64.73,15.76,8.39,4.23,15.56,8.63,21.92,13.45,26.62,20.17,41.13,48.82,39.81,78.6-1.31,29.67-18.2,56.79-46.32,74.42-8.77,5.5-17.44,9.05-24.41,11.9-2.68,1.1-5.21,2.13-7.26,3.08-4.66,2.15-9.29,4.23-13.78,6.25l-.26.12c-11.1,4.98-21.58,9.67-31.13,14.9-2.99,1.64-4.66,3.54-5.69,6.5,1.87,7.16,3.42,14.78,4.83,23.83,4.83,30.9-10.82,58.62-39.88,70.63-10.38,4.29-21.48,6.46-32.98,6.46Z"/>
          </g>
          <g id="r-4" data-name="r">
            <path class="cls-2" d="M471.16,438.09c-4.67,0-9.57-.55-14.58-1.65-18.29-3.99-33.82-13.86-46.16-29.33-22.17-27.78-29.83-61.08-22.17-96.3,12.14-55.83,46.17-98.2,101.15-125.92,13.28-6.7,28.67-9.95,47.03-9.95.85,0,1.71,0,2.57.02.86-.02,1.72-.03,2.58-.03,17.25,0,34.28,4.17,50.61,12.41,6.67,3.36,12.26,6.78,17.09,10.43,18.28,13.85,28.27,32.88,27.42,52.21-.86,19.5-12.1,36.99-31.65,49.24-6.48,4.06-13.17,6.8-19.63,9.44-3.01,1.23-5.86,2.4-8.56,3.65-4.57,2.12-9.21,4.19-13.69,6.2-11.68,5.24-22.72,10.19-33.34,16-10.22,5.59-17.17,13.95-20.65,24.86-1.83,5.72-2.02,10.83-.61,16.09,1.72,6.42,3.14,13.32,4.46,21.74,2.63,16.82-4.97,30.23-20.86,36.79-6.56,2.71-13.63,4.09-21.01,4.09Z"/>
            <path class="cls-2" d="M471.16,438.09c-4.67,0-9.57-.55-14.58-1.65-18.29-3.99-33.82-13.86-46.16-29.33-22.17-27.78-29.83-61.08-22.17-96.3,12.14-55.83,46.17-98.2,101.15-125.92,13.28-6.7,28.67-9.95,47.03-9.95.85,0,1.71,0,2.57.02.86-.02,1.72-.03,2.58-.03,17.25,0,34.28,4.17,50.61,12.41,6.67,3.36,12.26,6.78,17.09,10.43,18.28,13.85,28.27,32.88,27.42,52.21-.86,19.5-12.1,36.99-31.65,49.24-6.48,4.06-13.17,6.8-19.63,9.44-3.01,1.23-5.86,2.4-8.56,3.65-4.57,2.12-9.21,4.19-13.69,6.2-11.68,5.24-22.72,10.19-33.34,16-10.22,5.59-17.17,13.95-20.65,24.86-1.83,5.72-2.02,10.83-.61,16.09,1.72,6.42,3.14,13.32,4.46,21.74,2.63,16.82-4.97,30.23-20.86,36.79-6.56,2.71-13.63,4.09-21.01,4.09Z"/>
          </g>
        </g>
        <g>
          <g id="v-3" data-name="v">
            <path class="cls-2" d="M1665.8,456.46c-11.53,0-23.37-1.44-35.19-4.29-47.73-11.5-85.53-40.25-109.32-83.12-11.96-21.55-23.37-43.5-34.41-64.74l-.05-.1c-4.21-8.09-8.41-16.18-12.65-24.25l-.73-1.38c-2.73-5.18-6.14-11.64-8.88-19.39-8.44-23.84-5.52-48.49,7.99-67.61,13.17-18.63,34.44-29.31,58.37-29.31,5.4,0,10.91.56,16.38,1.65,25.99,5.21,47.4,19.85,65.46,44.76,11.5,15.85,20.46,29.35,28.2,42.47,6.13,10.38,11.55,20.72,16.79,30.72,2.55,4.86,4.99,9.51,7.46,14.07.54-13.77-1.45-29.54-6.12-49.24-.3-1.25-.6-2.49-.9-3.73-1.48-6.11-3-12.4-4.17-19.5-1.56-9.41-2.03-17.91-1.45-25.97,1.14-15.89,7.53-30.45,18.01-41.01,10.79-10.87,25.19-16.86,40.56-16.86,11.67,0,23.48,3.52,34.15,10.19,12.85,8.03,24.1,19.34,31.68,31.85,8.18,13.51,13.95,28.07,16.68,42.12,2.87,14.79,4.69,29.23,6.44,43.2.66,5.29,1.35,10.77,2.08,16.09l.67,4.91-.38,4.94c-1.56,20.26-3.9,42.07-10.38,64.25-8.69,29.78-24.98,54.77-47.1,72.26-22.34,17.66-49.73,27-79.2,27Z"/>
            <path class="cls-2" d="M1665.8,456.46c-11.53,0-23.37-1.44-35.19-4.29-47.73-11.5-85.53-40.25-109.32-83.12-11.96-21.55-23.37-43.5-34.41-64.74l-.05-.1c-4.21-8.09-8.41-16.18-12.65-24.25l-.73-1.38c-2.73-5.18-6.14-11.64-8.88-19.39-8.44-23.84-5.52-48.49,7.99-67.61,13.17-18.63,34.44-29.31,58.37-29.31,5.4,0,10.91.56,16.38,1.65,25.99,5.21,47.4,19.85,65.46,44.76,11.5,15.85,20.46,29.35,28.2,42.47,6.13,10.38,11.55,20.72,16.79,30.72,2.55,4.86,4.99,9.51,7.46,14.07.54-13.77-1.45-29.54-6.12-49.24-.3-1.25-.6-2.49-.9-3.73-1.48-6.11-3-12.4-4.17-19.5-1.56-9.41-2.03-17.91-1.45-25.97,1.14-15.89,7.53-30.45,18.01-41.01,10.79-10.87,25.19-16.86,40.56-16.86,11.67,0,23.48,3.52,34.15,10.19,12.85,8.03,24.1,19.34,31.68,31.85,8.18,13.51,13.95,28.07,16.68,42.12,2.87,14.79,4.69,29.23,6.44,43.2.66,5.29,1.35,10.77,2.08,16.09l.67,4.91-.38,4.94c-1.56,20.26-3.9,42.07-10.38,64.25-8.69,29.78-24.98,54.77-47.1,72.26-22.34,17.66-49.73,27-79.2,27Z"/>
          </g>
          <g id="v-4" data-name="v">
            <path class="cls-2" d="M1665.8,425.09c-9.06,0-18.43-1.15-27.84-3.42-38.97-9.39-69.83-32.85-89.24-67.84-11.77-21.21-23.1-43.01-34.05-64.08-4.22-8.13-8.45-16.25-12.7-24.36l-.75-1.42c-2.38-4.52-5.08-9.64-7.06-15.23-4.99-14.12-3.52-28.35,4.04-39.04,7.21-10.2,19.15-16.05,32.76-16.05,3.33,0,6.77.35,10.21,1.04,17.89,3.59,33.02,14.19,46.23,32.42,10.91,15.05,19.36,27.76,26.58,40,5.73,9.7,10.96,19.69,16.03,29.34,3.24,6.17,6.58,12.55,9.97,18.67.69,1.24,1.37,2.49,2.06,3.74,4.22,7.71,8.22,15,12.98,21.3,3.84,5.09,9.23,7.89,15.17,7.89,7.47,0,14.27-4.36,17.75-11.39,2.97-5.99,5.24-13.28,6.74-21.65,4.91-27.42-.11-54.78-5.03-75.55-.31-1.3-.62-2.6-.94-3.9-1.34-5.53-2.72-11.25-3.7-17.21-1.15-6.95-1.51-13.04-1.12-18.61,1.21-16.92,12.43-28.74,27.28-28.74,5.87,0,11.77,1.82,17.53,5.42,8.76,5.48,16.39,13.11,21.47,21.5,6.29,10.38,10.69,21.4,12.72,31.85,2.67,13.75,4.42,27.67,6.1,41.12.68,5.41,1.38,11,2.12,16.44l.22,1.59-.12,1.6c-1.43,18.58-3.54,38.45-9.21,57.88-6.78,23.24-19.16,42.58-35.81,55.95-16.88,13.56-37.76,20.72-60.39,20.72Z"/>
            <path class="cls-2" d="M1665.8,425.09c-9.06,0-18.43-1.15-27.84-3.42-38.97-9.39-69.83-32.85-89.24-67.84-11.77-21.21-23.1-43.01-34.05-64.08-4.22-8.13-8.45-16.25-12.7-24.36l-.75-1.42c-2.38-4.52-5.08-9.64-7.06-15.23-4.99-14.12-3.52-28.35,4.04-39.04,7.21-10.2,19.15-16.05,32.76-16.05,3.33,0,6.77.35,10.21,1.04,17.89,3.59,33.02,14.19,46.23,32.42,10.91,15.05,19.36,27.76,26.58,40,5.73,9.7,10.96,19.69,16.03,29.34,3.24,6.17,6.58,12.55,9.97,18.67.69,1.24,1.37,2.49,2.06,3.74,4.22,7.71,8.22,15,12.98,21.3,3.84,5.09,9.23,7.89,15.17,7.89,7.47,0,14.27-4.36,17.75-11.39,2.97-5.99,5.24-13.28,6.74-21.65,4.91-27.42-.11-54.78-5.03-75.55-.31-1.3-.62-2.6-.94-3.9-1.34-5.53-2.72-11.25-3.7-17.21-1.15-6.95-1.51-13.04-1.12-18.61,1.21-16.92,12.43-28.74,27.28-28.74,5.87,0,11.77,1.82,17.53,5.42,8.76,5.48,16.39,13.11,21.47,21.5,6.29,10.38,10.69,21.4,12.72,31.85,2.67,13.75,4.42,27.67,6.1,41.12.68,5.41,1.38,11,2.12,16.44l.22,1.59-.12,1.6c-1.43,18.58-3.54,38.45-9.21,57.88-6.78,23.24-19.16,42.58-35.81,55.95-16.88,13.56-37.76,20.72-60.39,20.72Z"/>
          </g>
        </g>
        <g>
          <g id="i-3" data-name="i">
            <g>
              <path class="cls-2" d="M1466.62,473.04c-31.72,0-57.97-21.41-66.88-54.53-2.65-9.85-4.62-20.23-6.39-33.65-2.42-18.36-9.01-34-20.14-47.82-9.56-11.86-18.68-25.43-28.69-42.72-7.45-12.85-16.83-32.68-12.37-56.41,5.96-31.72,32.53-48.39,41.26-53.87,14.36-9.01,30.74-13.77,47.37-13.77,25.45,0,49.19,10.74,66.85,30.24,9.71,10.72,15.89,22.32,20.87,31.63l.15.28c3.73,6.99,6.99,13.78,10.14,20.35,2.98,6.2,5.75,11.99,8.63,17.35,11.61,21.62,23.99,47.95,27.76,79.23,1.31,10.87,1.24,20.92,1.19,28.25-.01,1.83-.03,3.9,0,5.07l.18,7.62-2.27,7.28c-6.56,21.02-19.17,50.85-52.92,67.1-11.51,5.54-23.2,8.35-34.73,8.35Z"/>
              <path class="cls-2" d="M1466.62,473.04c-31.72,0-57.97-21.41-66.88-54.53-2.65-9.85-4.62-20.23-6.39-33.65-2.42-18.36-9.01-34-20.14-47.82-9.56-11.86-18.68-25.43-28.69-42.72-7.45-12.85-16.83-32.68-12.37-56.41,5.96-31.72,32.53-48.39,41.26-53.87,14.36-9.01,30.74-13.77,47.37-13.77,25.45,0,49.19,10.74,66.85,30.24,9.71,10.72,15.89,22.32,20.87,31.63l.15.28c3.73,6.99,6.99,13.78,10.14,20.35,2.98,6.2,5.75,11.99,8.63,17.35,11.61,21.62,23.99,47.95,27.76,79.23,1.31,10.87,1.24,20.92,1.19,28.25-.01,1.83-.03,3.9,0,5.07l.18,7.62-2.27,7.28c-6.56,21.02-19.17,50.85-52.92,67.1-11.51,5.54-23.2,8.35-34.73,8.35Z"/>
            </g>
            <g>
              <path class="cls-2" d="M1445.36,206.65c-48.48,0-88.65-40-89.54-89.16-.43-23.6,8.33-45.83,24.67-62.59,16.17-16.59,37.85-25.82,61.04-25.99h.59c48.96,0,89.06,40.21,89.44,89.63.18,23.76-8.78,46.01-25.23,62.66-16.12,16.31-37.64,25.35-60.6,25.45h-.37Z"/>
              <path class="cls-2" d="M1445.36,206.65c-48.48,0-88.65-40-89.54-89.16-.43-23.6,8.33-45.83,24.67-62.59,16.17-16.59,37.85-25.82,61.04-25.99h.59c48.96,0,89.06,40.21,89.44,89.63.18,23.76-8.78,46.01-25.23,62.66-16.12,16.31-37.64,25.35-60.6,25.45h-.37Z"/>
            </g>
          </g>
          <g id="i-4" data-name="i">
            <g>
              <path class="cls-2" d="M1466.62,441.68c-17.64,0-31.32-11.71-36.59-31.31-2.28-8.46-4-17.59-5.58-29.59-3.19-24.23-11.97-44.97-26.82-63.41-8.53-10.58-16.78-22.9-25.97-38.76-11.16-19.27-19.16-44.41,18.42-67.99,9.36-5.87,19.97-8.98,30.7-8.98,16.48,0,31.96,7.08,43.59,19.92,7.1,7.85,12.07,17.15,16.45,25.35l.16.3c3.42,6.4,6.54,12.92,9.56,19.21,3.1,6.46,6.02,12.56,9.24,18.54,10.23,19.05,21.11,42.04,24.25,68.15,1.07,8.88,1.01,17.78.96,24.28-.02,2.37-.03,4.41,0,6.03l.06,2.47-.73,2.35c-5.22,16.74-14.1,37.35-36.58,48.18-7.23,3.48-14.33,5.25-21.12,5.25Z"/>
              <path class="cls-2" d="M1466.62,441.68c-17.64,0-31.32-11.71-36.59-31.31-2.28-8.46-4-17.59-5.58-29.59-3.19-24.23-11.97-44.97-26.82-63.41-8.53-10.58-16.78-22.9-25.97-38.76-11.16-19.27-19.16-44.41,18.42-67.99,9.36-5.87,19.97-8.98,30.7-8.98,16.48,0,31.96,7.08,43.59,19.92,7.1,7.85,12.07,17.15,16.45,25.35l.16.3c3.42,6.4,6.54,12.92,9.56,19.21,3.1,6.46,6.02,12.56,9.24,18.54,10.23,19.05,21.11,42.04,24.25,68.15,1.07,8.88,1.01,17.78.96,24.28-.02,2.37-.03,4.41,0,6.03l.06,2.47-.73,2.35c-5.22,16.74-14.1,37.35-36.58,48.18-7.23,3.48-14.33,5.25-21.12,5.25Z"/>
            </g>
            <g>
              <path class="cls-2" d="M1445.36,175.28c-31.5,0-57.6-26.18-58.18-58.36-.28-15.16,5.33-29.41,15.77-40.12,10.28-10.54,24.06-16.41,38.81-16.52h.42c31.75,0,57.77,26.24,58.02,58.5.12,15.36-5.63,29.7-16.17,40.37-10.22,10.34-23.86,16.07-38.42,16.13h-.24Z"/>
              <path class="cls-2" d="M1445.36,175.28c-31.5,0-57.6-26.18-58.18-58.36-.28-15.16,5.33-29.41,15.77-40.12,10.28-10.54,24.06-16.41,38.81-16.52h.42c31.75,0,57.77,26.24,58.02,58.5.12,15.36-5.63,29.7-16.17,40.37-10.22,10.34-23.86,16.07-38.42,16.13h-.24Z"/>
            </g>
          </g>
        </g>
        <g>
          <g>
            <path class="cls-2" d="M556.7,132.78l22.49-112.44h55.99c32.85,0,44.56,17.91,44.56,34.67,0,8.16-2.49,15.52-7.13,21.59,2.28,4.43,3.48,9.46,3.48,14.91,0,25.07-21,41.26-53.51,41.26h-65.88ZM627.01,52.01h0Z"/>
            <path class="cls-2" d="M556.7,132.78l22.49-112.44h55.99c32.85,0,44.56,17.91,44.56,34.67,0,8.16-2.49,15.52-7.13,21.59,2.28,4.43,3.48,9.46,3.48,14.91,0,25.07-21,41.26-53.51,41.26h-65.88ZM627.01,52.01h0Z"/>
          </g>
          <g>
            <path class="cls-2" d="M707.67,132.78l-1.13-2.01-.4,2.01h-58.4l22.49-112.44h49.28c29.93,0,49.27,16.52,49.27,42.09,0,14.89-6.1,27.79-16.88,36.71l19.29,33.64h-63.52Z"/>
            <path class="cls-2" d="M707.67,132.78l-1.13-2.01-.4,2.01h-58.4l22.49-112.44h49.28c29.93,0,49.27,16.52,49.27,42.09,0,14.89-6.1,27.79-16.88,36.71l19.29,33.64h-63.52Z"/>
          </g>
          <g>
            <polygon class="cls-2" points="818.28 132.78 817.46 125.22 813.52 132.78 761.31 132.78 747.82 20.35 805.57 20.35 806.87 31.85 812.87 20.35 861.11 20.35 862.21 31.43 867.98 20.35 929.11 20.35 870.64 132.78 818.28 132.78"/>
            <polygon class="cls-2" points="818.28 132.78 817.46 125.22 813.52 132.78 761.31 132.78 747.82 20.35 805.57 20.35 806.87 31.85 812.87 20.35 861.11 20.35 862.21 31.43 867.98 20.35 929.11 20.35 870.64 132.78 818.28 132.78"/>
          </g>
          <g>
            <polygon class="cls-2" points="944.08 132.78 936.03 119.73 933.43 132.78 875.74 132.78 898.23 20.35 941.75 20.35 949.79 33.39 952.4 20.35 1010.08 20.35 987.6 132.78 944.08 132.78"/>
            <polygon class="cls-2" points="944.08 132.78 936.03 119.73 933.43 132.78 875.74 132.78 898.23 20.35 941.75 20.35 949.79 33.39 952.4 20.35 1010.08 20.35 987.6 132.78 944.08 132.78"/>
          </g>
        </g>
      </g>
    </g>
    <g>
      <g>
        <path id="c-3" data-name="c" class="cls-1" d="M233.25,407.17c-42.52-3.21-74-8.72-105.27-18.44-18.56-5.77-36.77-14.89-54.12-27.11-25.69-18.09-43.95-42.54-52.83-70.71-8.86-28.13-7.93-58.63,2.69-88.2,13.72-38.21,38.09-69.37,72.41-92.61,20.48-13.87,43.57-25.46,70.57-35.45,72.78-26.91,134.9-44.17,195.5-54.34,18.65-3.13,37.18-4.3,53.09-5.16,1.95-.1,3.92-.16,5.86-.16,20.88,0,40.76,5.89,59.07,17.52,17.89,11.36,28.87,29.61,30.12,50.08,1.26,20.7-7.56,40.42-24.2,54.09-11.01,9.04-23.49,13.82-36.1,13.82-6.62,0-13.09-1.31-19.23-3.9-1.28-.54-3.29-.78-6.51-.78-2.02,0-4.3.1-6.72.2-2.27.09-4.62.19-7.15.23-20.59.33-39.7,2.47-58.43,6.51-52.44,11.33-103.71,29.62-156.73,55.92-11.54,5.72-23.08,13.17-33.9,20.3-5.77,3.8-10.57,8.56-14.31,14.19,6.76,3.29,14.96,5.45,25.71,6.84,13.92,1.8,27.98,2.72,41.81,2.72,30.78,0,61.87-4.54,92.41-13.49,6.05-1.77,13.12-3.81,20.44-5.54,4.65-1.1,9.33-1.66,13.9-1.66,18.23,0,34.42,8.84,44.43,24.26,18.95,29.18,25.34,61.34,18.49,93-5.44,25.15-25.09,42.94-52.55,47.59l-5.49.93c-16.77,2.86-34.11,5.82-51.98,7.25-17.14,1.37-34.19,1.68-46.64,1.91-4.3.08-8.02.15-10.97.24l-1.69.06-1.69-.13Z"/>
        <path id="C-3" data-name="C" class="cls-2" d="M235.61,375.89c-40.02-3.02-69.53-8.17-98.32-17.12-16.35-5.08-31.4-12.96-45.37-22.8-40.81-28.74-55.55-75.68-38.68-122.66,11.64-32.42,32.06-58,60.48-77.24,19.87-13.45,41.41-23.7,63.87-32,61.81-22.85,124.71-41.9,189.81-52.82,16.34-2.74,33.01-3.88,49.59-4.77,16.65-.9,32.37,3.6,46.43,12.52,19.81,12.57,20.97,38.55,2.82,53.44-6.91,5.67-15.17,8.66-23.25,5.26-11.02-4.64-21.91-2.98-33.05-2.8-21.77.35-43.24,2.61-64.54,7.22-57.24,12.37-111.71,32.52-164.05,58.48-12.91,6.4-25.17,14.26-37.22,22.21-11.93,7.86-21.39,18.36-27.95,31.19-8.15,15.95-6.23,22.98,8.68,32.61,13.37,8.64,28.33,12.51,43.9,14.52,49.85,6.46,98.86,2.35,147.07-11.78,6.24-1.83,12.51-3.62,18.83-5.12,10.22-2.42,19.18.48,24.81,9.16,13.71,21.11,19.54,44.37,14.14,69.28-3,13.88-13.68,21.02-27.13,23.3-18.17,3.08-36.39,6.37-54.73,7.84-21.94,1.75-44.03,1.68-56.13,2.07Z"/>
      </g>
      <g>
        <path id="t-5" data-name="t" class="cls-1" d="M1256.05,474.59c-10,0-20.23-1.44-30.41-4.27-26.08-7.26-45.34-26.26-52.83-52.14-4.61-15.91-7.31-32.26-9.48-46.34-2.4-15.54-4.42-30.73-6.51-46.69-17.26-2.86-32.46-9.19-46.28-14.93-1.64-.68-3.29-1.37-4.93-2.04-21.78-8.96-34.32-29.43-33.54-54.76.96-30.98,16.67-55.37,44.26-68.68,12.96-6.25,24.81-12.11,35.91-17.77.61-4.71,1.34-9.94,2.77-15.53,2.43-9.52,5.77-20.63,12.12-30.87,6.41-10.34,15.61-19.37,25.91-25.42,9.72-5.71,20.54-8.73,31.31-8.73,24.75,0,46.56,15.69,55.57,39.96.75,2.04,1.45,4.06,2.11,6.07,3.96-.42,8.17-.73,12.57-.73.36,0,.71,0,1.07,0,30.02.35,57.19,14.94,72.68,39.04,15.57,24.23,17.55,55.21,5.29,82.87-11.76,26.54-33.22,44.93-62.32,53.51,4.76,14.83,11.54,29.33,20.18,43.13,5.79,9.25,10.21,17.87,13.53,26.37,10.25,26.28,3.57,52.73-17.88,70.76-21.45,18.03-45.36,27.17-71.08,27.17Z"/>
        <path id="t-6" data-name="t" class="cls-2" d="M1184.61,296.15c-3.73-.31-6.92-.76-10.11-.8-20.45-.23-38.65-8.64-56.97-16.17-10.58-4.35-14.46-13.93-14.12-24.79.58-18.92,9.13-33,26.54-41.4,15.9-7.67,31.72-15.52,47.38-23.66,2.06-1.07,3.78-4.18,4.27-6.62,1.56-7.78,1.83-15.85,3.79-23.51,1.95-7.62,4.3-15.51,8.39-22.11,3.65-5.89,9.18-11.4,15.15-14.91,16.48-9.69,34.91-2.83,41.57,15.1,3.5,9.42,5.68,19.33,8.77,30.14,4.09-.69,8.2-1.57,12.35-2.06,7.88-.92,15.79-2.38,23.67-2.28,41.58.48,66.55,39.7,49.66,77.85-9.19,20.75-25.89,32.38-47.52,37.44-6.98,1.63-14.08,2.75-21.65,4.2.07,10.74,1.57,20.6,4.47,30.27,5.73,19.16,14.04,37.11,24.66,54.08,4.2,6.7,8.03,13.78,10.89,21.13,5.3,13.59,2.23,26.05-8.84,35.35-21.29,17.89-45.79,24.24-72.91,16.69-15.7-4.37-26.62-15.13-31.11-30.65-4-13.81-6.41-28.15-8.61-42.39-3.58-23.18-6.41-46.48-9.71-70.91Z"/>
      </g>
      <g>
        <path id="e_2-5" data-name="e 2" class="cls-1" d="M1899.95,427.75c-13.45,0-26.82-1.28-39.75-3.8-21.75-4.24-41.42-12.24-58.47-23.76-33.77-22.83-46.72-56.83-53.52-80.41-10.88-37.74-7.89-77.48,8.92-118.12,13.88-33.57,39.37-57.63,73.72-69.57,24.75-8.6,47.42-12.79,69.3-12.79,10.02,0,20.03.9,29.74,2.68,26.58,4.86,48.11,16.74,63.99,35.31,24.53,28.67,29.59,63.39,14.26,97.77-.93,2.09-2.07,4.52-3.45,7.14,5.45-1.47,10.88-2.21,16.24-2.21,12.96,0,25.47,4.37,36.19,12.65,20.65,15.94,29.68,40.45,24.77,67.23-3.47,18.92-14.74,34.39-33.5,45.99-22.02,13.62-45.83,21.25-66.83,28-29.15,9.35-55.84,13.9-81.62,13.9Z"/>
        <path id="e_2-6" data-name="e 2" class="cls-2" d="M1836.25,292.78c4.4,14.71,12.72,22.13,23.68,26.92,12.41,5.43,25.56,8.18,39.03,8.03,22.54-.24,44.84-3.09,65.79-11.8,12.3-5.11,23.86-11.97,35.75-18.05.96-.49,1.89-1.06,2.85-1.56,11.76-6.24,23.54-7.42,34.62,1.13,12.08,9.32,15.76,22.13,13.08,36.74-2.1,11.42-9.44,18.98-19.14,24.98-18.66,11.54-39.34,18.2-59.92,24.8-34.45,11.05-69.65,16.22-105.78,9.18-16.85-3.28-32.57-9.27-46.9-18.96-22.63-15.3-33.66-37.83-40.96-63.13-9.68-33.57-5.26-65.95,7.76-97.45,10.46-25.3,28.86-42.83,55.03-51.92,27.05-9.4,54.58-14.1,83.1-8.88,17.89,3.27,33.77,10.78,45.8,24.84,16.65,19.47,19.9,41.17,9.45,64.61-2.33,5.23-5.15,10.57-8.94,14.79-22.68,25.28-50.31,40.69-85.1,41.06-3.25.03-6.5-.09-9.76-.07-12.61.05-25.31,1.14-39.46-5.27ZM1849.3,238.4c23.77,2.62,55.49-8.14,66.71-22.15-25.37.17-48.4,3.78-66.71,22.15Z"/>
      </g>
      <g>
        <path id="a-5" data-name="a" class="cls-1" d="M1138,493.93c-21.67,0-42-8.03-60.44-23.87-1.54-1.32-3-2.66-4.39-4.01-18.55,5.96-36.63,8.04-54.92,9.67-1.09.1-2.19.19-3.28.28-4.45.37-8.65.72-11.71,1.44-8.91,2.07-17.88,3.13-26.67,3.13-37.51,0-70.69-18.9-91.03-51.86-8.13-13.17-13.73-27.72-17.13-44.48-12.31-60.74,8.8-112.77,61.03-150.48,23.26-16.79,50.07-25.31,79.67-25.31,12.88,0,26.43,1.65,40.29,4.89,19.9,4.66,37.04,16.81,50.95,36.09,11.96,16.58,22.86,33.35,32.41,49.83,15.4,26.58,29.55,47.51,44.53,65.88,5.01,6.14,10.74,13.63,15.29,22.66,5.26,10.41,8.71,19.97,10.56,29.21,3.83,19.2-.15,37.72-11.22,52.13-11.21,14.59-28.37,23.33-48.33,24.61-1.87.12-3.75.18-5.61.18Z"/>
        <path id="a-6" data-name="a" class="cls-2" d="M1081.41,428.88c-22.04,11.11-43.92,13.63-65.94,15.59-6.47.58-13.04.95-19.33,2.41-34.16,7.96-65.53-4.91-83.89-34.66-6.54-10.6-10.61-22.04-13.08-34.23-10.23-50.49,8.29-89.68,48.65-118.82,28.35-20.47,60.96-23.15,94.44-15.31,14,3.28,24.56,12.66,32.66,23.9,10.97,15.21,21.31,30.98,30.71,47.21,14.17,24.47,29.48,48.06,47.36,69.98,4.32,5.3,8.54,10.9,11.6,16.97,3.38,6.7,6.34,13.9,7.8,21.22,4.29,21.48-8.86,37.9-30.8,39.3-16.89,1.08-31.16-5.5-43.59-16.18-5.97-5.13-10.96-11.41-16.59-17.39ZM972.73,358.57c18.68,9.18,37.41,11.06,57.98,3.97-9.18-12.56-19.62-20.42-34.62-20.17-11.24.19-18.49,6.44-23.36,16.2Z"/>
      </g>
      <g>
        <path id="e_1-5" data-name="e 1" class="cls-1" d="M770.63,464.36c-23.77,0-47.71-2.57-71.16-7.65-23.13-5-44.77-15.6-64.31-31.48-32.2-26.17-46.86-62.72-42.4-105.69,1.14-11.02,3.55-22.54,7.57-36.28,15.79-53.97,55.25-89.35,114.1-102.3,10.23-2.25,21.07-3.39,32.23-3.39,3.23,0,6.51.1,9.74.29,23.17,1.39,43.76,10.29,59.55,25.75,15.51,15.18,24.99,35.35,27.42,58.31,2.64,24.93-1.56,47.48-12.09,66.65,26.96,1.82,47.42,20.07,53.94,48.56,4.34,18.96,1.16,37.88-8.95,53.28-9.7,14.78-24.85,24.74-42.65,28.06-20.95,3.9-42.14,5.88-62.99,5.88Z"/>
        <path id="e_1-6" data-name="e 1" class="cls-2" d="M738.09,360.84c6.34.91,10.44,1.75,14.58,2.06,22.44,1.7,44.79,1.2,67.06-2.5,18.49-3.07,30.74,5.46,34.92,23.73,4.77,20.86-6.57,39.75-26.77,43.51-40.66,7.58-81.34,7.16-121.78-1.58-19.03-4.12-36.09-12.91-51.16-25.16-24.82-20.17-34.23-46.87-30.98-78.11,1.08-10.36,3.54-20.69,6.47-30.71,13.37-45.7,45.75-70.58,90.74-80.48,10.8-2.38,22.31-3.08,33.36-2.42,31.77,1.9,54.3,24.36,57.66,56.05,3.78,35.7-10.25,62.84-41.85,80.05-9.74,5.3-19.98,9.68-32.24,15.56ZM761.95,277.03c-25.01-11.14-66.57,5.79-73.17,29.49,22.61-5.01,44.69-9.83,64.46-21.64,3.12-1.86,5.53-4.92,8.72-7.85Z"/>
      </g>
      <g>
        <path id="r-5" data-name="r" class="cls-1" d="M471.16,454.45c-5.84,0-11.92-.68-18.07-2.02-22.06-4.82-40.72-16.63-55.46-35.11-25.34-31.75-34.11-69.79-25.37-109.98,13.24-60.89,50.17-107,109.77-137.05,15.62-7.88,33.42-11.71,54.41-11.71.83,0,1.66,0,2.49.02.88-.02,1.77-.03,2.65-.03,19.83,0,39.34,4.76,57.98,14.16,7.57,3.81,13.98,7.74,19.61,12.01,22.63,17.15,34.98,41.2,33.88,65.98-1.09,24.67-15.42,47.41-39.3,62.38-7.68,4.81-15.35,7.95-22.12,10.72-2.84,1.16-5.52,2.26-7.88,3.35-4.66,2.16-9.34,4.26-13.87,6.29-11.38,5.1-22.13,9.92-32.18,15.42-6.5,3.55-10.72,8.61-12.91,15.47-1.01,3.16-.89,5.03-.39,6.87,1.88,6.99,3.41,14.44,4.82,23.46,3.78,24.18-8.01,45.04-30.78,54.45-8.55,3.53-17.72,5.33-27.26,5.33Z"/>
        <path id="r-6" data-name="r" class="cls-2" d="M539.06,189.97c15.89-.44,31.59,3.32,46.37,10.77,5.14,2.59,10.21,5.53,14.79,9,29.81,22.59,28.56,56.91-3.14,76.78-8.17,5.12-17.68,8.1-26.52,12.18-16.04,7.42-32.46,14.19-47.93,22.65-13.29,7.27-22.98,18.56-27.74,33.46-2.59,8.13-3.05,16.2-.8,24.55,1.78,6.62,3.06,13.39,4.12,20.17,1.56,10-2.32,16.71-11.77,20.61-8.65,3.58-17.66,3.61-26.66,1.65-15.46-3.38-27.85-11.76-37.64-24.03-19.8-24.82-25.89-53.17-19.24-83.76,11.72-53.91,44.75-91.26,93.24-115.71,13.14-6.62,27.53-8.59,42.92-8.33Z"/>
      </g>
      <g>
        <path id="v-5" data-name="v" class="cls-1" d="M1665.8,441.46c-10.35,0-21.01-1.3-31.68-3.88-43.54-10.5-78.02-36.71-99.71-75.81-11.88-21.4-23.26-43.3-34.26-64.48-4.21-8.11-8.43-16.21-12.67-24.3l-.74-1.4c-2.64-5.01-5.63-10.68-8.01-17.4-6.79-19.19-4.57-38.86,6.1-53.95,10.32-14.6,27.13-22.97,46.12-22.97,4.41,0,8.93.46,13.43,1.36,22.12,4.43,40.52,17.14,56.26,38.86,11.21,15.47,19.93,28.59,27.43,41.29,5.93,10.06,11.27,20.23,16.43,30.06,3.34,6.37,6.5,12.39,9.8,18.36.7,1.26,1.39,2.53,2.08,3.79,3.93,7.17,7.64,13.95,11.68,19.3,1.05,1.39,1.74,1.39,2.11,1.39.59,0,2.07-.22,3.09-2.29,2.25-4.54,4.08-10.51,5.29-17.26,3.42-19.08,1.92-40.32-4.84-68.89-.3-1.28-.61-2.55-.92-3.83-1.41-5.82-2.86-11.83-3.94-18.39-1.36-8.24-1.78-15.58-1.29-22.45,1.82-25.46,20.16-43.94,43.6-43.94,8.86,0,17.92,2.74,26.2,7.91,10.9,6.81,20.41,16.36,26.79,26.9,7.28,12.01,12.39,24.88,14.79,37.21,2.78,14.29,4.56,28.48,6.28,42.21.67,5.36,1.37,10.91,2.1,16.26l.46,3.32-.26,3.35c-1.5,19.45-3.73,40.33-9.82,61.21-15.92,54.56-58.8,88.46-111.9,88.46Z"/>
        <path id="v-6" data-name="v" class="cls-2" d="M1756.25,289.38c-1.45,18.73-3.46,37.02-8.66,54.84-14.49,49.68-55.83,75-106.12,62.88-34.77-8.38-62.09-28.9-79.64-60.54-16.12-29.05-31.15-58.71-46.59-88.14-2.52-4.79-5.15-9.6-6.95-14.68-7.75-21.9,7.09-38.92,29.92-34.34,16.25,3.26,27.74,13.7,37.04,26.51,9.12,12.57,17.92,25.45,25.81,38.82,9.17,15.54,17.05,31.84,25.78,47.65,5.05,9.15,9.93,18.54,16.2,26.83,16.04,21.23,46.93,17.1,58.33-5.87,3.94-7.95,6.49-16.89,8.07-25.67,4.94-27.55,1.18-54.72-5.2-81.65-1.58-6.68-3.32-13.34-4.44-20.1-.82-4.96-1.31-10.1-.95-15.09.95-13.34,10.49-18.79,21.9-11.67,6.51,4.07,12.64,10.02,16.59,16.55,4.97,8.2,9,17.57,10.82,26.94,3.64,18.73,5.5,37.81,8.09,56.74Z"/>
      </g>
      <g>
        <g id="i-5" data-name="i">
          <path class="cls-1" d="M1466.62,458.04c-25.11,0-45.19-16.64-52.39-43.43-2.47-9.19-4.32-18.97-6-31.71-2.79-21.17-10.42-39.25-23.34-55.27-9.06-11.24-17.77-24.21-27.39-40.82-6.78-11.69-14.11-27.51-10.61-46.12,4.75-25.27,27.14-39.32,34.49-43.94,11.97-7.51,25.59-11.48,39.4-11.48,21.16,0,40.95,8.99,55.73,25.3,8.46,9.35,13.93,19.59,18.75,28.63l.16.3c3.58,6.71,6.78,13.38,9.87,19.83,3.02,6.29,5.87,12.23,8.9,17.89,10.95,20.39,22.61,45.12,26.08,73.93,1.19,9.92,1.13,19.42,1.08,26.35-.02,2.14-.03,4.16,0,5.53l.12,5.16-1.54,4.92c-6.21,19.9-16.94,44.49-45.11,58.05-9.46,4.56-18.96,6.87-28.22,6.87Z"/>
          <path class="cls-1" d="M1445.36,191.65c-40.36,0-73.8-33.39-74.54-74.43-.35-19.56,6.9-37.98,20.42-51.85,13.35-13.7,31.25-21.32,50.41-21.46h.54c40.7,0,74.07,33.53,74.38,74.74.15,19.74-7.27,38.21-20.9,52-13.3,13.46-31.05,20.91-49.99,20.99h-.3Z"/>
        </g>
        <g id="i-6" data-name="i">
          <path class="cls-2" d="M1510,383.79c-6.09,19.54-14.1,32.07-28.77,39.13-17.68,8.52-31.65,2.38-36.72-16.45-2.43-9.03-3.97-18.37-5.19-27.66-3.48-26.43-13.15-49.94-30.02-70.86-9.25-11.47-17.27-24.09-24.67-36.86-10.51-18.13-12.42-31.55,13.41-47.76,18.1-11.36,40.43-8.01,55.2,8.31,5.94,6.56,10.28,14.75,14.5,22.65,6.62,12.41,12.16,25.39,18.82,37.78,10.67,19.87,19.86,40.29,22.58,62.85,1.32,10.98.71,22.19.87,28.88Z"/>
          <path class="cls-2" d="M1445.54,160.28c-23.42.1-42.92-19.53-43.36-43.63-.41-22.75,17.3-41.21,39.69-41.37,23.44-.17,43.14,19.66,43.32,43.62.17,22.96-17.39,41.29-39.66,41.38Z"/>
        </g>
      </g>
      <g>
        <path class="cls-1" d="M661.09,91.52c0,18.25-17.43,26.26-38.51,26.26h-47.58l16.49-82.44h43.69c19.55,0,29.56,7.18,29.56,19.67,0,9.54-5.65,16.49-14.72,20.37,7.07,3.06,11.07,8.6,11.07,16.13ZM633.53,90.81c0-3.65-3.18-5.42-6.83-5.42h-17.9l-2.59,12.95h17.9c5.42,0,9.42-2.47,9.42-7.54ZM614.92,54.78l-2.47,12.25h14.13c6.36,0,9.19-2.71,9.19-7.18,0-3.42-2.71-5.06-7.3-5.06h-13.54Z"/>
        <path class="cls-1" d="M731.52,93.76l13.78,24.02h-28.85l-11.66-20.73h-6.83l-4.12,20.73h-27.79l16.49-82.44h36.98c21.79,0,34.27,10.01,34.27,27.09,0,14.72-8.24,26.03-22.26,31.33ZM715.26,56.78h-9.3l-3.89,19.31h11.42c7.65,0,12.13-4,12.13-10.95,0-5.89-4-8.36-10.36-8.36Z"/>
        <path class="cls-1" d="M904.4,35.35l-42.87,82.44h-29.8l-4.71-43.46-22.61,43.46h-29.79l-9.89-82.44h27.44l5.3,46.99,24.5-46.99h25.56l4.71,47.7,24.85-47.7h27.32Z"/>
        <path class="cls-1" d="M991.79,35.35l-16.49,82.44h-22.85l-23.67-38.39-7.65,38.39h-27.09l16.49-82.44h22.85l23.67,38.39,7.65-38.39h27.09Z"/>
      </g>
    </g>
  </g>
</svg>