<?xml version="1.0" encoding="UTF-8"?>
<svg id="Layer_2" data-name="Layer 2" xmlns="http://www.w3.org/2000/svg" viewBox="0 0 940.41 143.89">
  <defs>
    <style>
      .cls-1 {
        fill: #fff;
      }

      .cls-1, .cls-2 {
        stroke-width: 0px;
      }

      .cls-2 {
        fill: #231f20;
      }
    </style>
  </defs>
  <g id="Layer_3" data-name="Layer 3">
    <g>
      <path class="cls-2" d="M95.88,126.15c-1.51,0-3.02-.18-4.49-.53-6.24-1.51-11.53-5.43-15.31-11.34-3.34-5.23-5.29-11.87-5.33-18.22,0-.83.02-1.68.06-2.52.83-14.46,9.53-28.51,22.72-36.69,8.96-5.56,19.81-8.49,31.37-8.49,3.05,0,6.14.21,9.19.62,10.9,1.46,18.64,5.75,23.02,12.73,6.8,10.86,3.07,26.17-8.16,33.43-6.39,4.13-13.36,4.13-17.53,4.13h-2.11c-5.11,0-10,.16-13.57,1.97-.58.29-.87.51-.98.61-.18.75-.25,1.82-.34,2.94-.17,2.29-.38,5.14-1.44,8.2l-.07.21c-.42,1.22-.99,2.88-1.98,4.61-3,5.23-8.62,8.35-15.04,8.35Z"/>
      <path class="cls-2" d="M261.12,114.45c-3.97,0-7.9-1.03-11.67-3.07-8.41-4.55-14.24-11.85-19.28-19.07-5.64-8.06-8.75-15.99-9.25-23.57-.59-8.94,3.32-24.48,16.31-28.11,1.42-.4,2.87-.6,4.31-.6,8.12,0,14.18,6.19,17.5,13.6,1.92-8.45,8.93-16.39,18.34-16.39,3.84,0,7.59,1.38,10.83,3.98,6.03,4.84,7.22,12.35,7.61,14.82,2.18,13.72-1.02,28.65-8.79,40.95-7.22,11.43-16.17,17.47-25.91,17.47Z"/>
      <path class="cls-2" d="M306.47,117.82c-13.29,0-15.88-15.69-16.74-20.85-1.06-6.43-1.47-12.73-1.86-18.83l-.14-2.09c-.48-7.14-1.03-15.23,1.76-23.49,3.36-9.94,9.08-14.98,17.03-14.98.91,0,1.84.08,2.76.22,5.81.94,12.92,4.85,15.7,11.5l2.8,6.68-.96.83c.23,1.19.46,2.67.49,4.4l.02,1.08c.07,4.9.14,9.98-.21,15.12-.39,5.71-.8,11.61-2.06,17.78-.1.46-.19.99-.29,1.56-.95,5.22-2.38,13.12-8.48,17.58-3.17,2.32-6.48,3.49-9.82,3.49h0Z"/>
      <path class="cls-2" d="M307.14,48.06c-3.63,0-7.06-1.02-9.93-2.94-3.96-2.66-6.74-6.96-7.83-12.12-1.9-9.05,1.89-18.73,9.43-24.08,3.41-2.42,7.26-3.77,11.13-3.89.19,0,.38,0,.56,0,.82,0,1.64.06,2.44.17,10.1,1.42,15.62,10.7,16.47,18.72,1.2,11.31-7.46,20.39-16.21,23.2-1.98.63-4.01.95-6.06.95h0Z"/>
      <path class="cls-2" d="M426.64,118.38c-4.71,0-9.25-.43-13.49-1.27-8.13-1.61-14.07-4.77-18.15-9.66-3.19-3.81-5.18-8.62-6.09-14.68-1.49-9.95-.14-19.62,1.26-25.97,1.02-4.66,2.98-10.65,9.03-15.71,3.18-2.66,7.26-4.12,11.47-4.12,5.09,0,10.09,2.09,13.72,5.73,2.45,2.46,4.11,5.44,4.92,8.84.31,1.3.49,2.67.55,4.07.16,4.01.02,8.06-.43,12.05-.02.21-.05.42-.08.63.28.01.55.02.83.02.33,0,.66,0,1-.03,1.24-.08,2.03-.29,2.43-.44.22-.71.39-2.55-.1-4.38-.27-1.03-.68-2.18-1.1-3.4-1.33-3.81-2.98-8.55-2.47-14.24.59-6.68,4.19-12.37,9.62-15.22,2.55-1.34,5.32-2.02,8.22-2.02,8.5,0,15.9,5.95,19.46,11.84,2.51,4.15,4.04,9.13,4.67,15.22.89,8.54,1.28,17.78-1.79,27.53-2.11,6.69-6.06,16.13-15.98,20.83-6.21,2.94-13.35,3.52-19.09,3.99l-1.19.1c-2.45.21-4.88.31-7.2.31Z"/>
      <path class="cls-2" d="M500.36,125.49c-.86,0-1.71-.01-2.55-.03-4.71-.08-9.58-.16-14.89-1.38-12.44-2.84-21.04-11.28-22.43-22.01-.82-6.29,1.1-12.56,5.13-16.87-2.45-2.65-4.29-5.91-5.44-9.7-4.83-15.9,7.02-29.05,20.91-35.04,6.66-2.87,14.25-4.64,23.21-5.42,1.56-.14,3.14-.2,4.69-.2.28,0,.56,0,.84,0,7.85.12,14.08,1.8,19.05,5.13,8.15,5.46,13.17,17.33,7.06,26.98-3.23,5.11-8.1,7.1-12.39,7.93,4.36,3.64,7.5,7.98,9.18,12.78,5.16,14.65-4.77,30.09-17.28,35.32-5.26,2.2-10.58,2.49-15.09,2.49h0Z"/>
      <path class="cls-2" d="M681.87,126.6c-.3,0-.61,0-.91-.01-9.87-.28-19.83-4.49-28.26-11.92-.82.61-1.76,1.28-2.82,1.94-4.33,2.67-8.1,4.59-11.86,6.06-5.39,2.11-10.77,3.17-16,3.17-4.77,0-9.35-.89-13.63-2.65-10.84-4.46-17.59-14.1-22.76-22.94-4.98-8.52-8.45-17.69-10.3-27.26-3.22-16.68-2.35-40.71,9.75-58.15,4.69-6.76,12.09-10.64,20.31-10.64,6.21,0,12.31,2.27,17.17,6.38,4.95,4.19,12.45,13.43,7.01,28.3-1.57,4.3-3.93,8.33-6.04,11.69-3.97,6.36-5.77,16.09,2.21,22.58,1.57,1.27,3.43,2.04,4.97,2.04.12,0,.23,0,.35-.01,1.58-.12,4.35-1.06,8.56-4.87.54-.49,1.21-1.26,1.92-2.07,1.63-1.87,3.66-4.19,6.54-6.05,2.89-1.87,5.93-2.81,9.03-2.81,9.09,0,13.88,7.55,16.75,12.05.59.93,1.26,1.99,1.63,2.43.99,1.19,2.04,2.02,2.88,2.29.51.16,1.01.24,1.52.24,3.28,0,6.96-3.34,8.02-7.28,1.12-4.16-.84-7.49-5.92-14.64-4.73-6.65-10.61-14.93-10.06-25.95.62-12.29,9.83-21.21,21.9-21.21.25,0,.5,0,.75.01,15.48.47,25.58,14.12,28.31,18.3,1.72,2.63,3.26,5.53,4.58,8.62,11.06,25.96,4.41,58.41-16.17,78.91-8.58,8.55-19.31,13.45-29.43,13.45Z"/>
      <path class="cls-2" d="M922.56,143.89c-12.19,0-19.75-13.14-24.76-21.84-.75-1.31-1.54-2.67-1.97-3.3-3.16-4.66-7.09-8.74-11.48-11.92-.25,1.63-.63,3.38-1.31,5.15-3.21,8.47-10.26,13.95-17.94,13.95-1.88,0-3.76-.32-5.58-.96-12.98-4.55-12.23-18.68-11.92-24.71l.03-.49c.45-8.85.71-16.78-.79-24.32-.42-2.09-1.32-4.55-2.27-7.15-2.53-6.89-5.68-15.46-2.53-25.02,2.57-7.82,9.41-12.88,17.41-12.88,4.8,0,9.43,1.89,13.03,5.32,4.99,4.75,7.58,10.76,9.64,16.54.17.49.33.98.48,1.47.67-.64,1.35-1.3,2.04-1.97,1.57-1.52,3.19-3.1,4.89-4.61,5.74-5.07,14.57-11.9,24.96-12.61.42-.03.84-.04,1.26-.04,10.16,0,18.88,8.6,19.44,19.17.69,12.92-11.27,19.86-15.19,22.14-2.39,1.39-4.75,2.46-7.02,3.49-.11.05-.23.1-.34.15,10.38,8.29,21.7,18.52,26.29,34.73,3.73,13.19-.29,20.62-4.32,24.53-4.41,4.28-8.99,5.18-12.05,5.18Z"/>
      <path class="cls-2" d="M188.73,124.83c-15.2,0-28.33-5.12-36.04-14.04-6.25-7.23-8.74-16.58-7.2-27.03,1.09-7.4,4.27-14.88,9.45-22.23,4.34-6.16,8.95-10.52,14.11-13.34,4.26-2.33,8.97-3.56,13.6-3.56,3.39,0,6.61.65,9.59,1.94,9.68,4.19,15.08,13.69,16.51,23.04,2.71-1.67,5.92-2.85,9.77-3,.26-.01.52-.02.78-.02,9.15,0,16.32,6.4,17.84,15.92,2.07,12.95-4.52,25.62-17.63,33.88-1.96,1.24-4.03,2.37-6.16,3.36-7.02,3.28-15.76,5.08-24.62,5.08h0Z"/>
      <path class="cls-2" d="M359,113.47c-2.16,0-4.32-.19-6.4-.58-15.34-2.82-26.2-10.45-31.39-22.06-6.8-15.21-.36-33.76,9.14-43.5,6.37-6.52,13.37-10.44,20.8-11.64,2.59-.42,5.25-.63,7.91-.63,2.11,0,4.26.13,6.38.4,2.68.33,5.37.88,7.97,1.62,9.47,2.7,17.29,9.06,20.93,17.03,8.55,18.7,3.17,41.06-12.51,52.01-6.78,4.74-14.9,7.35-22.84,7.35h0ZM357.07,76.32c.16.01.39.02.68.02.18,0,.36,0,.54-.01.72-.03,1.9-.45,2.82-1.22-.01-.14-.05-.34-.14-.6-.04-.12-.31-.64-.9-1.24-.5-.52-1-.85-1.35-1.04-.99.82-1.96,2.64-1.91,3.72.06.1.15.24.26.37Z"/>
      <path class="cls-2" d="M753.89,127.62c-10.52,0-20.26-4.16-27.42-11.72-14.91-15.72-14.67-43.58.53-60.84,7.87-8.94,19.32-14.06,31.41-14.06,16.73,0,31.22,9.77,36.91,24.9,6.28,16.67,2.52,36.4-9.14,47.97-8.81,8.74-20.57,13.76-32.29,13.76h0ZM754.96,86.42c.16.01.39.02.68.02.18,0,.36,0,.54-.01.72-.03,1.9-.45,2.82-1.22-.01-.14-.05-.34-.14-.6-.05-.13-.31-.64-.9-1.24-.5-.52-1-.85-1.35-1.04-.99.82-1.96,2.64-1.91,3.72.06.1.15.24.26.37Z"/>
      <path class="cls-2" d="M839.16,128.95c-3.64,0-7.48-.98-10.79-2.75-2.82-1.51-5.1-3.41-7.02-5.4-3.57,4.79-8.59,7.42-14.23,7.42-7.89,0-16.03-5.65-19.8-13.73-3.62-7.77-3.91-15.9-4.16-23.07l-.04-1.25c-.56-15.26,2.51-27.96,9.13-37.73,6.76-9.99,17.89-15.96,29.76-15.96.92,0,1.84.04,2.76.11,14.52,1.15,25.09,11.44,26.92,26.21.85,6.87-.19,13.95-3.01,20.47-1.13,2.62-2.53,5.1-4.17,7.38,4.78,4.59,8.07,9.29,9.96,14.23,1.92,5.01,1.89,10.2-.08,14.62-2.63,5.91-8.33,9.44-15.23,9.44h0Z"/>
      <path class="cls-2" d="M37.31,130.42c-13.15,0-23.61-11.46-28.56-21.27C-1.75,88.35-2.87,63.64,5.77,43.06,15.01,21.05,34.85,4.9,57.53.91c3.45-.61,6.93-.91,10.34-.91,8.97,0,17.42,2.15,24.43,6.21,13.93,8.08,21.51,24.03,18.44,38.78-1.96,9.38-7.74,18.3-16.29,25.11-10.47,8.34-24.64,14.24-38.87,16.19-.25.03-.47.07-.68.1.4,1.66,1.16,3.92,1.73,5.59,1.4,4.15,2.99,8.86,3.35,13.81.81,11.14-5.03,17.43-10.08,20.75-3.92,2.57-8.16,3.88-12.6,3.88h0ZM53.19,86.87h0Z"/>
    </g>
    <g>
      <path class="cls-1" d="M84.5,108.89c-2.46-3.85-3.73-8.64-3.76-12.91,0-.63.01-1.26.05-1.88.67-11.74,8.01-22.56,18-28.76,9.99-6.19,22.31-8.03,33.96-6.46,6.09.82,12.61,2.91,15.87,8.12,4.11,6.56,1.13,15.68-5.11,19.72-4.29,2.78-9.32,2.52-14.22,2.53-6.13,0-12.49.23-18.08,3.05-3.08,1.56-5.33,3.68-6.17,7.12s-.38,6.98-1.52,10.31c-.36,1.06-.71,2.13-1.27,3.1-1.68,2.93-5.39,3.82-8.51,3.07-3.99-.96-7.07-3.63-9.24-7.01Z"/>
      <path class="cls-1" d="M251.55,62.79c-.07-.3-.14-.6-.21-.9-1.14-4.72-5.2-13.38-11.41-11.64-6.69,1.87-9.42,11.85-9.03,17.83.44,6.67,3.69,13.1,7.46,18.49,4.28,6.12,9.23,12.43,15.84,16.01,10.44,5.65,19.04-2.5,24.37-10.94,6.31-10,9.23-22.31,7.37-34.04-.51-3.19-1.47-6.57-4-8.59-6.72-5.4-13.43,2.6-13.44,9.17,0,2.7.51,5.37.64,8.06.24,4.83-.64,11.34-3.66,15.33-3.37,4.45-7.4-.16-9.24-3.48-2.62-4.72-3.49-10.09-4.7-15.29Z"/>
      <path class="cls-1" d="M315.77,53.16c-1.19-2.85-5.13-5.02-8.07-5.49-5.19-.84-7.3,3.88-8.72,8.08-2.33,6.9-1.61,14.16-1.15,21.25.4,6.14.77,12.24,1.78,18.34.86,5.23,2.94,16.64,10.79,10.91,3.36-2.46,4.13-9.42,4.87-13.06,1.12-5.49,1.5-10.91,1.88-16.47.35-5.09.25-10.27.17-15.38-.02-1.73-.43-3.09-.72-4.72-.13-.71-.04-1.45-.33-2.11-.39-.9-.95-.97-.5-1.36Z"/>
      <path class="cls-1" d="M311.55,15.09c-.42-.06-.85-.08-1.29-.07-2.03.06-4,.87-5.66,2.05-4.29,3.04-6.51,8.73-5.43,13.88.48,2.3,1.65,4.56,3.61,5.87,2.12,1.42,4.94,1.55,7.37.77,5.18-1.66,9.93-6.92,9.32-12.62-.47-4.39-3.33-9.23-7.92-9.87Z"/>
      <path class="cls-1" d="M419.59,63.86c-.36-1.53-1.08-2.9-2.28-4.1-3.07-3.08-8.23-3.89-11.7-.99-3.35,2.8-4.75,6.01-5.67,10.18-1.57,7.13-2.22,15.11-1.14,22.34.52,3.5,1.6,7.03,3.87,9.75,3.03,3.63,7.79,5.34,12.43,6.27,5.89,1.17,11.94,1.3,17.91.8,5.37-.45,11.9-.83,16.83-3.16,6-2.84,8.82-8.75,10.73-14.8,2.45-7.78,2.21-15.49,1.38-23.49-.4-3.86-1.27-7.76-3.28-11.08-2.72-4.5-9.14-8.93-14.47-6.13-2.6,1.36-4.05,4.33-4.31,7.25-.45,5.04,2.01,9.47,3.27,14.18,1.11,4.17.97,9.9-1.84,13.41-2.21,2.77-6.12,3.75-9.51,3.97-2.34.15-4.68-.05-7-.33-1.7-.2-3.72-.38-4.96-1.73-2.2-2.4-.67-6.84-.35-9.65.39-3.49.52-7.02.38-10.53-.03-.74-.12-1.46-.29-2.15Z"/>
      <path class="cls-1" d="M516.81,65.59c3.74-.22,8.45-.44,10.68-3.96,2.85-4.5-.18-10.66-4.17-13.33s-8.99-3.36-13.64-3.44c-1.5-.02-3.01.03-4.51.16-6.82.59-13.81,1.92-20.12,4.64-8.81,3.8-18.55,12.27-15.3,22.95,1.25,4.12,3.62,7.16,7.63,8.9,6.22,2.71,12.92,4.36,18.79,7.88,2.76,1.66,8.4,4.95,6.61,9.03-.4.91-1.24,1.58-2.15,1.98-5.37,2.34-11.84-.53-14.93-5.15-1.32-1.98-2.88-4.83-5.33-5.47s-5.46.26-7.3,2.13c-2.25,2.28-3.07,5.72-2.66,8.89.97,7.48,7.9,11.99,14.74,13.55,4.28.98,8.48,1.05,12.84,1.13,4.53.08,9.36.08,13.61-1.7,8.41-3.51,14.9-13.69,11.7-22.77-1.63-4.64-5.28-8.18-9.37-10.74-3.7-2.31-8-3.05-12.24-3.62-3.93-.53-9.15-.7-12.42-3.22-.94-.73-1.67-1.8-1.75-2.98-.06-.97.33-1.92.92-2.69,1.42-1.82,3.77-2.67,5.95-3.09,7.56-1.47,14.9,1.37,22.42.93Z"/>
      <path class="cls-1" d="M620.18,35.45c2.19-5.98,2.1-12.01-4.07-17.23-6.98-5.91-17.43-5.43-22.81,2.32-9.62,13.86-11.27,34.41-8.15,50.56,1.64,8.48,4.75,16.66,9.11,24.11,4.32,7.39,9.77,15.38,17.93,18.74,7.23,2.97,15.03,2.21,22.18-.59,3.58-1.4,6.98-3.25,10.26-5.26,5.08-3.13,7.54-7.72,13.17-2.31,6.24,6,14.64,10.56,23.44,10.81s17.05-4.59,23-10.52c17.34-17.28,23.67-45.27,14.03-67.91-1.05-2.46-2.28-4.83-3.74-7.07-4.35-6.65-11.92-13.52-20.25-13.78-7.11-.22-12.01,4.71-12.36,11.7-.82,16.31,20.24,25.7,15.65,42.7-2.52,9.35-12.36,17.13-22.25,13.96-2.97-.95-5.5-3.01-7.5-5.41-3.53-4.23-7.03-14.38-14.3-9.68-2.82,1.82-4.71,4.9-7.18,7.14-3.98,3.6-9.01,7.01-14.51,7.42-4.46.34-8.92-1.41-12.39-4.23-11.24-9.14-11.66-23.98-4.38-35.63,1.98-3.17,3.91-6.49,5.13-9.83Z"/>
      <path class="cls-1" d="M877.36,68.46c-2.9-3.56-3.17-8.65-4.66-12.84-1.6-4.5-3.58-9.29-7.11-12.65-4.77-4.54-11.98-2.85-14.05,3.44-3.05,9.27,3.37,18.28,5.12,27.09,1.75,8.83,1.43,17.85.97,26.78-.27,5.19-.89,13.12,5.21,15.25,5.09,1.78,9.21-2.72,10.87-7.1,1.67-4.39.48-10.26,3.63-13.98,2.25-2.65,8.31,1.22,10.67,2.75,6.37,4.14,11.85,9.64,16.11,15.93,3.89,5.75,13.67,27.95,23.53,18.39,3.85-3.74,2.97-9.97,1.65-14.62-3.74-13.23-12.99-21.75-23.39-30.02-2.58-2.05-7.04-4.37-7.56-7.96-.26-1.8,1-3.5,2.49-4.53,4.33-2.98,9.6-4.6,14.13-7.24,4.72-2.74,10.55-6.88,10.23-12.96-.27-5.14-4.65-10.05-10.03-9.68-7.06.49-13.89,5.59-19.03,10.13-5.46,4.82-10.55,11-17.16,14.27-.28.14-.6.27-.9.18-.22-.07-.38-.24-.53-.41-.07-.08-.14-.16-.2-.24Z"/>
      <path class="cls-1" d="M227.27,84.09c-.69-4.31-3.62-7.69-8.35-7.5-9.35.38-12.81,13.55-21.09,16.73-2.77,1.07-6.4,1.37-8.98-.36-.35-.23-.71-.57-.68-.99,0-.08.02-.16.05-.23.11-.26.36-.48.59-.66,5.1-4,9.38-7.55,10.21-14.38.83-7.95-3.07-17.63-10.75-20.96-4.59-1.98-10.04-1.18-14.43,1.21-4.39,2.4-7.84,6.23-10.72,10.32-3.78,5.37-6.77,11.43-7.73,17.93-4.32,29.34,33.84,34.76,53.74,25.48,1.74-.81,3.43-1.73,5.06-2.76,8.22-5.18,14.72-13.62,13.08-23.84ZM182.44,76.44c-.34.46-.69.9-1.02,1.31-1.32,1.62-2.85,3.07-4.36,4.51-.64.61-3.72,3.53-3.82,1.02-.04-1.08.51-2.05.92-3.01.43-1.03.94-2.03,1.5-3,.91-1.56,1.99-3.03,3.21-4.37.86-.95,1.94-2.21,3.32-2.35.71-.07,1.49.24,1.81.86.18.35.21.77.17,1.16-.13,1.37-.88,2.69-1.73,3.86Z"/>
      <path class="cls-1" d="M385.25,58.26c-2.66-5.82-8.52-9.84-14.58-11.57-2.11-.6-4.28-1.04-6.46-1.32-3.81-.47-7.68-.43-11.46.18-5.94.96-11.1,4.52-15.24,8.76-7.65,7.84-11.72,22.25-7.17,32.43,4.35,9.74,13.96,14.45,24.06,16.31,7.51,1.38,15.48-.79,21.71-5.14,12.53-8.76,15.25-26.29,9.14-39.66ZM367.94,82.42c-2.48,2.23-5.93,3.78-9.28,3.9-2.7.1-5.57-.18-7.7-2-1.84-1.57-3.53-4-3.96-6.4-1.08-5.93,2.98-13.1,8.58-15.33,3.99-1.59,8.57.52,11.67,3.71,1.49,1.54,2.64,3.33,3.22,5.08,1.33,4.03.66,8.17-2.53,11.03Z"/>
      <path class="cls-1" d="M785.96,69.42c-8.02-21.3-36.75-24.45-51.46-7.75-11.14,12.66-12.76,34.72-.78,47.35,12.68,13.37,33.07,10,45.41-2.26,9.29-9.22,11.49-24.94,6.82-37.35ZM765.83,92.53c-2.48,2.23-5.93,3.78-9.28,3.9-2.7.1-5.57-.18-7.7-2-1.84-1.57-3.53-4-3.96-6.4-1.08-5.93,2.98-13.1,8.58-15.33,3.99-1.59,8.57.52,11.67,3.71,1.49,1.54,2.64,3.33,3.22,5.08,1.33,4.03.66,8.17-2.53,11.03Z"/>
      <path class="cls-1" d="M845.13,108.46c-2.35-6.12-7.83-11.29-12.94-15.16-.48-.36-.98-.74-1.19-1.31-.57-1.57,3.49-4.76,4.39-5.87,1.67-2.07,3.05-4.38,4.11-6.83,2.07-4.78,2.9-10.1,2.26-15.28-1.22-9.91-7.83-16.68-17.78-17.47-9.29-.74-18.25,3.8-23.45,11.49-6.24,9.22-7.82,20.86-7.42,31.76.25,6.83.33,14.15,3.27,20.46,3.06,6.55,11.95,11.79,17.19,4.21,1.55-2.25,2.12-5.02,2.04-7.72,0-.25-.02-.49-.04-.74-.06-.79-1.38-5.62-.36-5.81,1.07-.19,2.1.43,2.93,1.13,5.65,4.74,8.2,12.45,14.93,16.04,3.77,2.02,10.08,2.76,12.18-1.94.97-2.18.73-4.75-.12-6.98ZM822.17,72.61c-1.02,1.04-8.66,7.15-9.75,5.2-.55-.99,1.07-3.87,1.49-4.76,1.62-3.38,4.14-6.98,8.13-7.54.67-.09,1.4-.05,1.96.34,2.55,1.77-.4,5.29-1.82,6.76Z"/>
      <path class="cls-1" d="M87.29,14.86c-8.34-4.84-18.53-5.77-28.02-4.1-19.57,3.44-36.58,17.84-44.27,36.17-7.69,18.32-6.27,39.97,2.69,57.71,4.57,9.05,15.79,20.74,26.75,13.54,4.71-3.09,5.92-7.21,5.59-11.66-.91-12.51-13.96-27.66,4.22-30.14,11.88-1.62,24.57-6.59,33.99-14.1,6.16-4.9,11.12-11.62,12.73-19.33,2.34-11.24-4-22.48-13.66-28.09ZM58.63,48.91c-1.31.4-9.38,2.9-9.26.37,0-.07.01-.14.03-.21.78-3.79,7.25-8.73,10.49-10.29,3.02-1.45,9.41-4.51,11.8-.84,3.48,5.35-9.49,9.89-13.07,10.97Z"/>
    </g>
  </g>
</svg>