<?xml version="1.0" encoding="UTF-8"?>
<svg id="Layer_2" data-name="Layer 2" xmlns="http://www.w3.org/2000/svg" viewBox="0 0 422.13 169.21">
  <defs>
    <style>
      .cls-1 {
        fill: #fff;
      }

      .cls-1, .cls-2 {
        stroke-width: 0px;
      }

      .cls-2 {
        fill: #231f20;
      }
    </style>
  </defs>
  <g id="Layer_5" data-name="Layer 5">
    <g>
      <path class="cls-2" d="M86.98,133.94c-1.38,0-2.76-.15-4.09-.44-6.27-1.38-11.64-5.18-15.55-11.01-3.45-5.16-5.54-11.76-5.72-18.11-.02-.83-.02-1.68.01-2.52.52-14.47,8.93-28.71,21.94-37.16,9.23-6,20.51-9.17,32.61-9.17,2.58,0,5.19.15,7.78.44,10.93,1.23,18.76,5.35,23.28,12.24,7.03,10.72,3.62,26.1-7.45,33.59-6.35,4.3-13.04,4.42-18.41,4.52l-1.14.02c-5.11.12-9.99.38-13.53,2.26-.58.31-.86.53-.97.63-.16.76-.22,1.82-.28,2.95-.12,2.29-.27,5.14-1.26,8.23l-.06.2c-.39,1.22-.93,2.9-1.88,4.65-2.92,5.35-8.77,8.67-15.27,8.67Z"/>
      <path class="cls-2" d="M158.32,130.87c-12.97,0-15.94-15.34-16.92-20.39-1.24-6.4-1.82-12.7-2.38-18.79l-.19-2.06c-.68-7.12-1.45-15.2,1.11-23.54,3.15-10.25,8.89-15.45,17.07-15.45.76,0,1.53.05,2.3.15,5.83.77,13.05,4.49,16.02,11.06l2.98,6.6-.94.86c.26,1.18.54,2.65.61,4.38l.04,1.07c.21,4.9.42,9.98.21,15.13-.24,5.71-.48,11.62-1.57,17.83-.08.47-.16,1-.25,1.57-.8,5.25-2.01,13.18-7.99,17.8-3.23,2.5-6.63,3.77-10.1,3.77h0Z"/>
      <path class="cls-2" d="M152.01,67.24c-3.48,0-6.79-.94-9.58-2.73-4.02-2.57-6.89-6.82-8.08-11.96-2.09-9.01,1.5-18.77,8.92-24.28,3.36-2.49,7.18-3.92,11.04-4.12.31-.02.62-.02.93-.02.69,0,1.39.04,2.07.12,10.13,1.21,15.84,10.37,16.86,18.37,1.44,11.28-7.03,20.54-15.72,23.53-2.1.72-4.26,1.08-6.45,1.08h0Z"/>
      <path class="cls-2" d="M261.05,125.72c-5.2,0-9.99-2.71-13.15-7.43-3.31-4.95-4.59-10.29-5.73-15-.23-.94-.45-1.88-.69-2.8-3.67-13.91-3.97-25.53-.91-35.5,3.15-10.25,8.89-15.45,17.07-15.45.76,0,1.53.05,2.3.15,6.54.87,11.96,4.59,15.26,10.49,4.43,7.91,4.76,16.73,4.5,24.32-.07,2.08-.1,4.18-.13,6.3-.07,4.76-.14,9.68-.65,14.58-.88,8.47-4.07,14.47-9.47,17.84-2.61,1.63-5.51,2.49-8.4,2.49h0Z"/>
      <path class="cls-2" d="M257.52,65.02c-3.48,0-6.79-.94-9.58-2.73-4.02-2.57-6.89-6.82-8.08-11.96-2.09-9.01,1.5-18.76,8.92-24.27,3.36-2.5,7.18-3.92,11.05-4.12.31-.02.62-.02.93-.02.69,0,1.39.04,2.07.12,10.13,1.21,15.84,10.37,16.86,18.37,1.44,11.28-7.03,20.54-15.72,23.53-2.1.72-4.27,1.08-6.45,1.08h0Z"/>
      <path class="cls-2" d="M38.08,131.05c-12.95,0-23.46-11.14-28.53-20.67C-1.4,89.81-3.03,65.13,5.17,44.37,13.95,22.17,33.44,5.6,56.04,1.14c3.84-.76,7.72-1.14,11.51-1.14,8.52,0,16.6,1.98,23.36,5.71,14.1,7.79,22.01,23.57,19.25,38.38-1.76,9.42-7.35,18.46-15.75,25.45-10.29,8.56-24.33,14.76-38.52,17-.25.04-.47.08-.67.12.44,1.66,1.25,3.89,1.85,5.55,1.49,4.12,3.18,8.8,3.64,13.74,1.05,11.12-4.66,17.53-9.64,20.95-4,2.75-8.37,4.14-12.98,4.14h0Z"/>
      <path class="cls-2" d="M202.83,129.39c-13.99,0-26.06-6.67-32.28-17.84-9.35-16.81-7.73-41.37,11.18-53.37,7.6-4.83,16.49-7.6,24.37-7.6,2.59,0,5.11.29,7.49.86l.51.12c7.77,1.92,18.62,5.66,22.56,15.77.53,1.36.9,2.79,1.11,4.25.46,3.26.11,6.54-.99,9.55,4.05,1.34,7.54,3.87,9.9,7.3,3.35,4.86,3.99,10.98,1.77,16.82-2.98,7.83-10.24,14.4-20.99,19-7.52,3.21-15.79,4.99-23.91,5.13-.25,0-.5,0-.75,0Z"/>
      <path class="cls-2" d="M330.49,123.26c-3.26,0-6.22-.77-8.79-2.29-3.74-2.21-6.54-6.03-7.89-10.77-1.06-3.75-1.54-7.38-2.01-10.89-.51-3.85-.99-7.49-2.19-10.33-.59-1.41-1.52-2.67-2.39-3.57,0,.03,0,.06.01.09.13.83.34,1.83.57,2.89,1.22,5.75,3.48,16.44-5.06,24.1-3.53,3.17-8.15,4.92-13,4.92-6.84,0-13.01-3.37-16.5-9.02-5.06-8.2-6.08-19.25-5.41-26.23,1.13-11.8,7.11-22.47,16.01-28.52,6.32-4.3,13.29-6.48,20.72-6.48,22.96,0,42.27,20.57,46.98,39.64,2.01,8.12,2.02,19.71-3.96,27.9-3.7,5.06-9.27,8.09-15.71,8.53-.46.03-.93.05-1.4.05Z"/>
      <path class="cls-2" d="M351.32,169.21c-18.36,0-40.47-10.26-47.21-29.87-2.19-6.38-2.67-15.71,2.58-22.75,3.32-4.46,8.38-6.91,14.24-6.91,3.71,0,7.73,1.03,11.35,2.91,3.14,1.63,5.85,3.62,8.24,5.37,1.81,1.33,3.52,2.58,5.16,3.5,3.81,2.14,7.74,3.32,11.34,3.41.07,0,.15,0,.22,0-5.35-3.51-9.34-8.86-11.46-15.49-4.08-12.78-1.98-26.2,5.76-36.8,7.41-10.15,18.71-15.98,30.99-15.98,4.27,0,8.56.72,12.77,2.13,17.38,5.85,27.63,22.76,26.76,44.15-.36,8.91-2.41,17.43-6.1,25.32-10.22,21.87-32.81,37.44-58.98,40.65-1.83.22-3.74.34-5.67.34h0Z"/>
    </g>
    <g>
      <path class="cls-1" d="M75.65,116.92c-2.54-3.8-3.91-8.56-4.03-12.82-.02-.63-.01-1.26,0-1.88.42-11.75,7.53-22.73,17.39-29.13s22.14-8.5,33.82-7.18c6.1.69,12.67,2.65,16.04,7.79,4.25,6.48,1.46,15.66-4.7,19.83-4.23,2.86-9.27,2.71-14.17,2.83-6.13.14-12.48.49-18.01,3.43-3.04,1.62-5.25,3.8-6.02,7.25s-.23,6.98-1.31,10.34c-.34,1.06-.67,2.14-1.2,3.12-1.62,2.96-5.31,3.93-8.44,3.25-4.01-.88-7.15-3.48-9.38-6.81Z"/>
      <path class="cls-1" d="M166.22,65.98c-1.27-2.82-5.27-4.87-8.22-5.26-5.22-.69-7.19,4.08-8.5,8.32-2.14,6.96-1.22,14.2-.56,21.27.57,6.13,1.11,12.21,2.29,18.28,1.01,5.2,3.4,16.55,11.09,10.61,3.29-2.55,3.86-9.53,4.51-13.19.97-5.52,1.2-10.95,1.43-16.51.21-5.1-.04-10.27-.25-15.37-.07-1.73-.52-3.08-.85-4.7-.15-.71-.08-1.44-.39-2.1-.42-.89-.97-.94-.54-1.34Z"/>
      <path class="cls-1" d="M156.13,34.19c-.42-.05-.85-.06-1.29-.04-2.03.11-3.98.95-5.61,2.17-4.22,3.13-6.33,8.87-5.14,13.99.53,2.29,1.75,4.52,3.73,5.79,2.15,1.38,4.97,1.44,7.39.61,5.14-1.77,9.78-7.12,9.05-12.81-.56-4.38-3.52-9.16-8.13-9.71Z"/>
      <path class="cls-1" d="M266.47,65.07c-1.63-2.91-4.11-4.96-7.85-5.46-5.22-.69-7.19,4.08-8.5,8.32-2.98,9.71-1.53,20.37,1.02,30.01,1.31,4.94,2.18,10.46,5.07,14.79,1.95,2.92,4.91,3.91,7.94,2.01,3.39-2.12,4.43-6.68,4.82-10.39.68-6.58.51-13.54.73-20.19s0-13.32-3.23-19.09Z"/>
      <path class="cls-1" d="M261.64,31.97c-.42-.05-.85-.06-1.29-.04-2.03.11-3.98.95-5.61,2.17-4.22,3.13-6.33,8.87-5.14,13.99.53,2.29,1.75,4.52,3.73,5.79,2.15,1.38,4.97,1.44,7.39.61,5.14-1.77,9.78-7.12,9.05-12.81-.56-4.38-3.52-9.16-8.13-9.71Z"/>
      <path class="cls-1" d="M86.08,14.47c-8.44-4.66-18.65-5.38-28.1-3.51-19.5,3.85-36.2,18.61-43.5,37.09-7.3,18.48-5.43,40.1,3.9,57.64,4.76,8.95,16.22,20.4,27.03,12.98,4.64-3.19,5.77-7.33,5.35-11.77-1.18-12.48-14.53-27.36,3.58-30.22,11.84-1.87,24.42-7.11,33.68-14.81,6.05-5.03,10.87-11.85,12.32-19.59,2.11-11.28-4.47-22.39-14.25-27.8ZM58.15,49.11c-1.3.43-9.32,3.09-9.25.56,0-.07,0-.14.02-.21.7-3.81,7.07-8.88,10.28-10.51,2.98-1.51,9.31-4.71,11.78-1.09,3.59,5.27-9.28,10.08-12.84,11.25Z"/>
      <path class="cls-1" d="M227.35,70.97c-2.27-5.81-10.21-8.35-15.69-9.71-.13-.03-.26-.06-.4-.1-8-1.92-17.38,1.14-24.18,5.45-13.44,8.53-15.15,26.85-7.8,40.06,4.83,8.68,14.32,12.87,24.11,12.7,6.88-.12,13.83-1.62,20.15-4.32s13.12-6.92,15.57-13.36c2.97-7.81-4.76-12.97-11.84-11.36-4.85,1.11-9.14,4.3-13.53,6.53-3.8,1.93-8.48,4.33-12.89,3.62-6.44-1.03-6.18-10.13-3.3-14.3,2.09-3.02,5.52-4.67,9.12-4.91,4.12-.27,7.77,1.91,11.79,2.35,5.94.65,10.21-5.04,9.41-10.65-.1-.71-.28-1.39-.53-2.02Z"/>
      <path class="cls-1" d="M297.37,87.03c.9,5.83,3.93,13.34-1.29,18.02-4.23,3.79-11.34,2.91-14.32-1.92-3.33-5.38-4.56-13.76-3.96-20.02.77-8.02,4.76-16.5,11.68-21.21,20.93-14.26,47.14,6.15,52.37,27.29,2.15,8.68,1.12,23.25-10.63,24.04-1.53.1-3.12-.1-4.43-.87-1.74-1.03-2.8-2.94-3.35-4.88-2.05-7.22-1.63-15.31-4.59-22.37s-11.44-15.23-18.72-8.7c-2.01,1.8-2.92,4.58-3.02,7.28-.04,1,.08,2.13.26,3.34Z"/>
      <path class="cls-1" d="M392.12,68.23c-23.5-7.91-44.3,14.68-36.81,38.13,1.71,5.34,5.25,9.68,10.52,11.78,3.89,1.55,7.84.83,11.9.82,2.89,0,5.21.99,3.11,4.01-5.4,7.77-14.67,12.16-24.08,11.92-5.59-.14-11.13-1.96-15.99-4.69-4.6-2.58-8.47-6.3-13.12-8.72-4.06-2.11-9.89-3.01-12.95,1.1-2.75,3.69-2.57,9.37-1.14,13.53,5.57,16.21,26.6,24.77,42.21,22.85,22.31-2.74,42.09-15.6,51.13-34.96,3.03-6.48,4.85-13.69,5.17-21.49.59-14.54-5.24-29.32-19.96-34.27ZM389.16,98c-1.08,1.71-3.16,2.49-5.09,2.72-3.96.46-9.48-1.56-9.14-6.37.25-3.49,2.5-7.18,6.15-7.86,2.53-.47,4.97.57,6.5,2.57,1.96,2.55,3.09,6.55,1.57,8.94Z"/>
    </g>
  </g>
</svg>